<svg width="300" height="301" viewBox="0 0 300 301" fill="none" xmlns="http://www.w3.org/2000/svg">
<path d="M3.26297 6.9845C5.06506 6.9845 6.52594 5.49113 6.52594 3.64897C6.52594 1.80682 5.06506 0.313477 3.26297 0.313477C1.46088 0.313477 0 1.80682 0 3.64897C0 5.49113 1.46088 6.9845 3.26297 6.9845Z" fill="black" fill-opacity="0.5"/>
<path d="M32.6106 6.9845C34.4127 6.9845 35.8736 5.49113 35.8736 3.64897C35.8736 1.80682 34.4127 0.313477 32.6106 0.313477C30.8085 0.313477 29.3477 1.80682 29.3477 3.64897C29.3477 5.49113 30.8085 6.9845 32.6106 6.9845Z" fill="black" fill-opacity="0.5"/>
<path d="M61.9583 6.9845C63.7604 6.9845 65.2213 5.49113 65.2213 3.64897C65.2213 1.80682 63.7604 0.313477 61.9583 0.313477C60.1562 0.313477 58.6953 1.80682 58.6953 3.64897C58.6953 5.49113 60.1562 6.9845 61.9583 6.9845Z" fill="black" fill-opacity="0.5"/>
<path d="M94.5689 3.64897C94.5689 5.4845 93.1015 6.9845 91.3059 6.9845C89.5103 6.9845 88.043 5.4845 88.043 3.64897C88.043 1.81345 89.5103 0.313477 91.3059 0.313477C93.1015 0.313477 94.5689 1.81345 94.5689 3.64897Z" fill="black" fill-opacity="0.5"/>
<path d="M123.915 3.64897C123.915 5.4845 122.447 6.9845 120.652 6.9845C118.856 6.9845 117.389 5.4845 117.389 3.64897C117.389 1.81345 118.856 0.313477 120.652 0.313477C122.447 0.313477 123.915 1.81345 123.915 3.64897Z" fill="black" fill-opacity="0.5"/>
<path d="M149.999 6.9845C151.801 6.9845 153.262 5.49113 153.262 3.64897C153.262 1.80682 151.801 0.313477 149.999 0.313477C148.197 0.313477 146.736 1.80682 146.736 3.64897C146.736 5.49113 148.197 6.9845 149.999 6.9845Z" fill="black" fill-opacity="0.5"/>
<path d="M179.347 6.9845C181.149 6.9845 182.61 5.49113 182.61 3.64897C182.61 1.80682 181.149 0.313477 179.347 0.313477C177.545 0.313477 176.084 1.80682 176.084 3.64897C176.084 5.49113 177.545 6.9845 179.347 6.9845Z" fill="black" fill-opacity="0.5"/>
<path d="M208.695 6.9845C210.497 6.9845 211.958 5.49113 211.958 3.64897C211.958 1.80682 210.497 0.313477 208.695 0.313477C206.892 0.313477 205.432 1.80682 205.432 3.64897C205.432 5.49113 206.892 6.9845 208.695 6.9845Z" fill="black" fill-opacity="0.5"/>
<path d="M238.042 6.9845C239.844 6.9845 241.305 5.49113 241.305 3.64897C241.305 1.80682 239.844 0.313477 238.042 0.313477C236.24 0.313477 234.779 1.80682 234.779 3.64897C234.779 5.49113 236.24 6.9845 238.042 6.9845Z" fill="black" fill-opacity="0.5"/>
<path d="M267.39 6.9845C269.192 6.9845 270.653 5.49113 270.653 3.64897C270.653 1.80682 269.192 0.313477 267.39 0.313477C265.588 0.313477 264.127 1.80682 264.127 3.64897C264.127 5.49113 265.588 6.9845 267.39 6.9845Z" fill="black" fill-opacity="0.5"/>
<path d="M296.738 6.9845C298.54 6.9845 300.001 5.49113 300.001 3.64897C300.001 1.80682 298.54 0.313477 296.738 0.313477C294.936 0.313477 293.475 1.80682 293.475 3.64897C293.475 5.49113 294.936 6.9845 296.738 6.9845Z" fill="black" fill-opacity="0.5"/>
<path d="M3.26297 33.6487C5.06506 33.6487 6.52594 32.1553 6.52594 30.3131C6.52594 28.4709 5.06506 26.9775 3.26297 26.9775C1.46088 26.9775 0 28.4709 0 30.3131C0 32.1553 1.46088 33.6487 3.26297 33.6487Z" fill="black" fill-opacity="0.5"/>
<path d="M32.6106 33.6487C34.4127 33.6487 35.8736 32.1553 35.8736 30.3131C35.8736 28.4709 34.4127 26.9775 32.6106 26.9775C30.8085 26.9775 29.3477 28.4709 29.3477 30.3131C29.3477 32.1553 30.8085 33.6487 32.6106 33.6487Z" fill="black" fill-opacity="0.5"/>
<path d="M61.9583 33.6487C63.7604 33.6487 65.2213 32.1553 65.2213 30.3131C65.2213 28.4709 63.7604 26.9775 61.9583 26.9775C60.1562 26.9775 58.6953 28.4709 58.6953 30.3131C58.6953 32.1553 60.1562 33.6487 61.9583 33.6487Z" fill="black" fill-opacity="0.5"/>
<path d="M94.5689 30.3131C94.5689 32.1487 93.1015 33.6487 91.3059 33.6487C89.5103 33.6487 88.043 32.1487 88.043 30.3131C88.043 28.4776 89.5103 26.9775 91.3059 26.9775C93.1015 26.9775 94.5689 28.4776 94.5689 30.3131Z" fill="black" fill-opacity="0.5"/>
<path d="M123.915 30.3131C123.915 32.1487 122.447 33.6487 120.652 33.6487C118.856 33.6487 117.389 32.1487 117.389 30.3131C117.389 28.4776 118.856 26.9775 120.652 26.9775C122.447 26.9775 123.915 28.4776 123.915 30.3131Z" fill="black" fill-opacity="0.5"/>
<path d="M149.999 33.6487C151.801 33.6487 153.262 32.1553 153.262 30.3131C153.262 28.4709 151.801 26.9775 149.999 26.9775C148.197 26.9775 146.736 28.4709 146.736 30.3131C146.736 32.1553 148.197 33.6487 149.999 33.6487Z" fill="black" fill-opacity="0.5"/>
<path d="M179.347 33.6487C181.149 33.6487 182.61 32.1553 182.61 30.3131C182.61 28.4709 181.149 26.9775 179.347 26.9775C177.545 26.9775 176.084 28.4709 176.084 30.3131C176.084 32.1553 177.545 33.6487 179.347 33.6487Z" fill="black" fill-opacity="0.5"/>
<path d="M208.695 33.6487C210.497 33.6487 211.958 32.1553 211.958 30.3131C211.958 28.4709 210.497 26.9775 208.695 26.9775C206.892 26.9775 205.432 28.4709 205.432 30.3131C205.432 32.1553 206.892 33.6487 208.695 33.6487Z" fill="black" fill-opacity="0.5"/>
<path d="M238.042 33.6487C239.844 33.6487 241.305 32.1553 241.305 30.3131C241.305 28.4709 239.844 26.9775 238.042 26.9775C236.24 26.9775 234.779 28.4709 234.779 30.3131C234.779 32.1553 236.24 33.6487 238.042 33.6487Z" fill="black" fill-opacity="0.5"/>
<path d="M267.39 33.6487C269.192 33.6487 270.653 32.1553 270.653 30.3131C270.653 28.4709 269.192 26.9775 267.39 26.9775C265.588 26.9775 264.127 28.4709 264.127 30.3131C264.127 32.1553 265.588 33.6487 267.39 33.6487Z" fill="black" fill-opacity="0.5"/>
<path d="M296.738 33.6487C298.54 33.6487 300.001 32.1553 300.001 30.3131C300.001 28.4709 298.54 26.9775 296.738 26.9775C294.936 26.9775 293.475 28.4709 293.475 30.3131C293.475 32.1553 294.936 33.6487 296.738 33.6487Z" fill="black" fill-opacity="0.5"/>
<path d="M3.26297 60.3136C5.06506 60.3136 6.52594 58.8202 6.52594 56.9781C6.52594 55.1359 5.06506 53.6426 3.26297 53.6426C1.46088 53.6426 0 55.1359 0 56.9781C0 58.8202 1.46088 60.3136 3.26297 60.3136Z" fill="black" fill-opacity="0.5"/>
<path d="M32.6106 60.3136C34.4127 60.3136 35.8736 58.8202 35.8736 56.9781C35.8736 55.1359 34.4127 53.6426 32.6106 53.6426C30.8085 53.6426 29.3477 55.1359 29.3477 56.9781C29.3477 58.8202 30.8085 60.3136 32.6106 60.3136Z" fill="black" fill-opacity="0.5"/>
<path d="M61.9583 60.3136C63.7604 60.3136 65.2213 58.8202 65.2213 56.9781C65.2213 55.1359 63.7604 53.6426 61.9583 53.6426C60.1562 53.6426 58.6953 55.1359 58.6953 56.9781C58.6953 58.8202 60.1562 60.3136 61.9583 60.3136Z" fill="black" fill-opacity="0.5"/>
<path d="M94.5689 56.9781C94.5689 58.8136 93.1015 60.3136 91.3059 60.3136C89.5103 60.3136 88.043 58.8136 88.043 56.9781C88.043 55.1426 89.5103 53.6426 91.3059 53.6426C93.1015 53.6426 94.5689 55.1426 94.5689 56.9781Z" fill="black" fill-opacity="0.5"/>
<path d="M123.915 56.9781C123.915 58.8136 122.447 60.3136 120.652 60.3136C118.856 60.3136 117.389 58.8136 117.389 56.9781C117.389 55.1426 118.856 53.6426 120.652 53.6426C122.447 53.6426 123.915 55.1426 123.915 56.9781Z" fill="black" fill-opacity="0.5"/>
<path d="M149.999 60.3136C151.801 60.3136 153.262 58.8202 153.262 56.9781C153.262 55.1359 151.801 53.6426 149.999 53.6426C148.197 53.6426 146.736 55.1359 146.736 56.9781C146.736 58.8202 148.197 60.3136 149.999 60.3136Z" fill="black" fill-opacity="0.5"/>
<path d="M179.347 60.3136C181.149 60.3136 182.61 58.8202 182.61 56.9781C182.61 55.1359 181.149 53.6426 179.347 53.6426C177.545 53.6426 176.084 55.1359 176.084 56.9781C176.084 58.8202 177.545 60.3136 179.347 60.3136Z" fill="black" fill-opacity="0.5"/>
<path d="M208.695 60.3136C210.497 60.3136 211.958 58.8202 211.958 56.9781C211.958 55.1359 210.497 53.6426 208.695 53.6426C206.892 53.6426 205.432 55.1359 205.432 56.9781C205.432 58.8202 206.892 60.3136 208.695 60.3136Z" fill="black" fill-opacity="0.5"/>
<path d="M238.042 60.3136C239.844 60.3136 241.305 58.8202 241.305 56.9781C241.305 55.1359 239.844 53.6426 238.042 53.6426C236.24 53.6426 234.779 55.1359 234.779 56.9781C234.779 58.8202 236.24 60.3136 238.042 60.3136Z" fill="black" fill-opacity="0.5"/>
<path d="M267.39 60.3136C269.192 60.3136 270.653 58.8202 270.653 56.9781C270.653 55.1359 269.192 53.6426 267.39 53.6426C265.588 53.6426 264.127 55.1359 264.127 56.9781C264.127 58.8202 265.588 60.3136 267.39 60.3136Z" fill="black" fill-opacity="0.5"/>
<path d="M296.738 60.3136C298.54 60.3136 300.001 58.8202 300.001 56.9781C300.001 55.1359 298.54 53.6426 296.738 53.6426C294.936 53.6426 293.475 55.1359 293.475 56.9781C293.475 58.8202 294.936 60.3136 296.738 60.3136Z" fill="black" fill-opacity="0.5"/>
<path d="M6.52594 83.6422C6.52594 85.4778 5.05857 86.9778 3.26297 86.9778C1.46737 86.9778 0 85.4778 0 83.6422C0 81.8067 1.46737 80.3066 3.26297 80.3066C5.05857 80.3066 6.52594 81.8067 6.52594 83.6422Z" fill="black" fill-opacity="0.5"/>
<path d="M35.8736 83.6421C35.8736 85.4777 34.4062 86.9776 32.6106 86.9776C30.815 86.9776 29.3477 85.4777 29.3477 83.6421C29.3477 81.8066 30.815 80.3066 32.6106 80.3066C34.4062 80.3066 35.8736 81.8066 35.8736 83.6421Z" fill="black" fill-opacity="0.5"/>
<path d="M65.2213 83.6421C65.2213 85.4777 63.7539 86.9776 61.9583 86.9776C60.1627 86.9776 58.6953 85.4777 58.6953 83.6421C58.6953 81.8066 60.1627 80.3066 61.9583 80.3066C63.7539 80.3066 65.2213 81.8066 65.2213 83.6421Z" fill="black" fill-opacity="0.5"/>
<path d="M94.5689 83.6421C94.5689 85.4777 93.1015 86.9776 91.3059 86.9776C89.5103 86.9776 88.043 85.4777 88.043 83.6421C88.043 81.8066 89.5103 80.3066 91.3059 80.3066C93.1015 80.3066 94.5689 81.8066 94.5689 83.6421Z" fill="black" fill-opacity="0.5"/>
<path d="M123.915 83.6421C123.915 85.4777 122.447 86.9776 120.652 86.9776C118.856 86.9776 117.389 85.4777 117.389 83.6421C117.389 81.8066 118.856 80.3066 120.652 80.3066C122.447 80.3066 123.915 81.8066 123.915 83.6421Z" fill="black" fill-opacity="0.5"/>
<path d="M153.262 83.6421C153.262 85.4777 151.795 86.9776 149.999 86.9776C148.204 86.9776 146.736 85.4777 146.736 83.6421C146.736 81.8066 148.204 80.3066 149.999 80.3066C151.795 80.3066 153.262 81.8066 153.262 83.6421Z" fill="black" fill-opacity="0.5"/>
<path d="M182.61 83.6421C182.61 85.4777 181.143 86.9776 179.347 86.9776C177.551 86.9776 176.084 85.4777 176.084 83.6421C176.084 81.8066 177.551 80.3066 179.347 80.3066C181.143 80.3066 182.61 81.8066 182.61 83.6421Z" fill="black" fill-opacity="0.5"/>
<path d="M211.958 83.6421C211.958 85.4777 210.49 86.9776 208.695 86.9776C206.899 86.9776 205.432 85.4777 205.432 83.6421C205.432 81.8066 206.899 80.3066 208.695 80.3066C210.49 80.3066 211.958 81.8066 211.958 83.6421Z" fill="black" fill-opacity="0.5"/>
<path d="M241.305 83.6421C241.305 85.4777 239.838 86.9776 238.042 86.9776C236.247 86.9776 234.779 85.4777 234.779 83.6421C234.779 81.8066 236.247 80.3066 238.042 80.3066C239.838 80.3066 241.305 81.8066 241.305 83.6421Z" fill="black" fill-opacity="0.5"/>
<path d="M270.653 83.6421C270.653 85.4777 269.185 86.9776 267.39 86.9776C265.594 86.9776 264.127 85.4777 264.127 83.6421C264.127 81.8066 265.594 80.3066 267.39 80.3066C269.185 80.3066 270.653 81.8066 270.653 83.6421Z" fill="black" fill-opacity="0.5"/>
<path d="M300.001 83.6421C300.001 85.4777 298.533 86.9776 296.738 86.9776C294.942 86.9776 293.475 85.4777 293.475 83.6421C293.475 81.8066 294.942 80.3066 296.738 80.3066C298.533 80.3066 300.001 81.8066 300.001 83.6421Z" fill="black" fill-opacity="0.5"/>
<path d="M6.52594 110.307C6.52594 112.143 5.05857 113.643 3.26297 113.643C1.46737 113.643 0 112.143 0 110.307C0 108.472 1.46737 106.972 3.26297 106.972C5.05857 106.972 6.52594 108.472 6.52594 110.307Z" fill="black" fill-opacity="0.5"/>
<path d="M35.8736 110.307C35.8736 112.143 34.4062 113.643 32.6106 113.643C30.815 113.643 29.3477 112.143 29.3477 110.307C29.3477 108.472 30.815 106.972 32.6106 106.972C34.4062 106.972 35.8736 108.472 35.8736 110.307Z" fill="black" fill-opacity="0.5"/>
<path d="M65.2213 110.307C65.2213 112.143 63.7539 113.643 61.9583 113.643C60.1627 113.643 58.6953 112.143 58.6953 110.307C58.6953 108.472 60.1627 106.972 61.9583 106.972C63.7539 106.972 65.2213 108.472 65.2213 110.307Z" fill="black" fill-opacity="0.5"/>
<path d="M94.5689 110.307C94.5689 112.143 93.1015 113.643 91.3059 113.643C89.5103 113.643 88.043 112.143 88.043 110.307C88.043 108.472 89.5103 106.972 91.3059 106.972C93.1015 106.972 94.5689 108.472 94.5689 110.307Z" fill="black" fill-opacity="0.5"/>
<path d="M123.915 110.307C123.915 112.143 122.447 113.643 120.652 113.643C118.856 113.643 117.389 112.143 117.389 110.307C117.389 108.472 118.856 106.972 120.652 106.972C122.447 106.972 123.915 108.472 123.915 110.307Z" fill="black" fill-opacity="0.5"/>
<path d="M153.262 110.307C153.262 112.143 151.795 113.643 149.999 113.643C148.204 113.643 146.736 112.143 146.736 110.307C146.736 108.472 148.204 106.972 149.999 106.972C151.795 106.972 153.262 108.472 153.262 110.307Z" fill="black" fill-opacity="0.5"/>
<path d="M182.61 110.307C182.61 112.143 181.143 113.643 179.347 113.643C177.551 113.643 176.084 112.143 176.084 110.307C176.084 108.472 177.551 106.972 179.347 106.972C181.143 106.972 182.61 108.472 182.61 110.307Z" fill="black" fill-opacity="0.5"/>
<path d="M211.958 110.307C211.958 112.143 210.49 113.643 208.695 113.643C206.899 113.643 205.432 112.143 205.432 110.307C205.432 108.472 206.899 106.972 208.695 106.972C210.49 106.972 211.958 108.472 211.958 110.307Z" fill="black" fill-opacity="0.5"/>
<path d="M241.305 110.307C241.305 112.143 239.838 113.643 238.042 113.643C236.247 113.643 234.779 112.143 234.779 110.307C234.779 108.472 236.247 106.972 238.042 106.972C239.838 106.972 241.305 108.472 241.305 110.307Z" fill="black" fill-opacity="0.5"/>
<path d="M270.653 110.307C270.653 112.143 269.185 113.643 267.39 113.643C265.594 113.643 264.127 112.143 264.127 110.307C264.127 108.472 265.594 106.972 267.39 106.972C269.185 106.972 270.653 108.472 270.653 110.307Z" fill="black" fill-opacity="0.5"/>
<path d="M300.001 110.307C300.001 112.143 298.533 113.643 296.738 113.643C294.942 113.643 293.475 112.143 293.475 110.307C293.475 108.472 294.942 106.972 296.738 106.972C298.533 106.972 300.001 108.472 300.001 110.307Z" fill="black" fill-opacity="0.5"/>
<path d="M6.52594 136.971C6.52594 138.807 5.05857 140.307 3.26297 140.307C1.46737 140.307 0 138.807 0 136.971C0 135.136 1.46737 133.636 3.26297 133.636C5.05857 133.636 6.52594 135.136 6.52594 136.971Z" fill="black" fill-opacity="0.5"/>
<path d="M35.8736 136.971C35.8736 138.807 34.4062 140.307 32.6106 140.307C30.815 140.307 29.3477 138.807 29.3477 136.971C29.3477 135.136 30.815 133.636 32.6106 133.636C34.4062 133.636 35.8736 135.136 35.8736 136.971Z" fill="black" fill-opacity="0.5"/>
<path d="M65.2213 136.971C65.2213 138.807 63.7539 140.307 61.9583 140.307C60.1627 140.307 58.6953 138.807 58.6953 136.971C58.6953 135.136 60.1627 133.636 61.9583 133.636C63.7539 133.636 65.2213 135.136 65.2213 136.971Z" fill="black" fill-opacity="0.5"/>
<path d="M94.5689 136.971C94.5689 138.807 93.1015 140.307 91.3059 140.307C89.5103 140.307 88.043 138.807 88.043 136.971C88.043 135.136 89.5103 133.636 91.3059 133.636C93.1015 133.636 94.5689 135.136 94.5689 136.971Z" fill="black" fill-opacity="0.5"/>
<path d="M123.915 136.971C123.915 138.807 122.447 140.307 120.652 140.307C118.856 140.307 117.389 138.807 117.389 136.971C117.389 135.136 118.856 133.636 120.652 133.636C122.447 133.636 123.915 135.136 123.915 136.971Z" fill="black" fill-opacity="0.5"/>
<path d="M153.262 136.971C153.262 138.807 151.795 140.307 149.999 140.307C148.204 140.307 146.736 138.807 146.736 136.971C146.736 135.136 148.204 133.636 149.999 133.636C151.795 133.636 153.262 135.136 153.262 136.971Z" fill="black" fill-opacity="0.5"/>
<path d="M182.61 136.971C182.61 138.807 181.143 140.307 179.347 140.307C177.551 140.307 176.084 138.807 176.084 136.971C176.084 135.136 177.551 133.636 179.347 133.636C181.143 133.636 182.61 135.136 182.61 136.971Z" fill="black" fill-opacity="0.5"/>
<path d="M211.958 136.971C211.958 138.807 210.49 140.307 208.695 140.307C206.899 140.307 205.432 138.807 205.432 136.971C205.432 135.136 206.899 133.636 208.695 133.636C210.49 133.636 211.958 135.136 211.958 136.971Z" fill="black" fill-opacity="0.5"/>
<path d="M241.305 136.971C241.305 138.807 239.838 140.307 238.042 140.307C236.247 140.307 234.779 138.807 234.779 136.971C234.779 135.136 236.247 133.636 238.042 133.636C239.838 133.636 241.305 135.136 241.305 136.971Z" fill="black" fill-opacity="0.5"/>
<path d="M270.653 136.971C270.653 138.807 269.185 140.307 267.39 140.307C265.594 140.307 264.127 138.807 264.127 136.971C264.127 135.136 265.594 133.636 267.39 133.636C269.185 133.636 270.653 135.136 270.653 136.971Z" fill="black" fill-opacity="0.5"/>
<path d="M300.001 136.971C300.001 138.807 298.533 140.307 296.738 140.307C294.942 140.307 293.475 138.807 293.475 136.971C293.475 135.136 294.942 133.636 296.738 133.636C298.533 133.636 300.001 135.136 300.001 136.971Z" fill="black" fill-opacity="0.5"/>
<path d="M3.26297 166.972C5.06506 166.972 6.52594 165.479 6.52594 163.636C6.52594 161.794 5.06506 160.301 3.26297 160.301C1.46088 160.301 0 161.794 0 163.636C0 165.479 1.46088 166.972 3.26297 166.972Z" fill="black" fill-opacity="0.5"/>
<path d="M32.6106 166.972C34.4127 166.972 35.8736 165.479 35.8736 163.636C35.8736 161.794 34.4127 160.301 32.6106 160.301C30.8085 160.301 29.3477 161.794 29.3477 163.636C29.3477 165.479 30.8085 166.972 32.6106 166.972Z" fill="black" fill-opacity="0.5"/>
<path d="M61.9583 166.972C63.7604 166.972 65.2213 165.479 65.2213 163.636C65.2213 161.794 63.7604 160.301 61.9583 160.301C60.1562 160.301 58.6953 161.794 58.6953 163.636C58.6953 165.479 60.1562 166.972 61.9583 166.972Z" fill="black" fill-opacity="0.5"/>
<path d="M94.5689 163.636C94.5689 165.472 93.1015 166.972 91.3059 166.972C89.5103 166.972 88.043 165.472 88.043 163.636C88.043 161.801 89.5103 160.301 91.3059 160.301C93.1015 160.321 94.5689 161.801 94.5689 163.636Z" fill="black" fill-opacity="0.5"/>
<path d="M123.915 163.636C123.915 165.472 122.447 166.972 120.652 166.972C118.856 166.972 117.389 165.472 117.389 163.636C117.389 161.801 118.856 160.301 120.652 160.301C122.447 160.321 123.915 161.801 123.915 163.636Z" fill="black" fill-opacity="0.5"/>
<path d="M149.999 166.972C151.801 166.972 153.262 165.479 153.262 163.636C153.262 161.794 151.801 160.301 149.999 160.301C148.197 160.301 146.736 161.794 146.736 163.636C146.736 165.479 148.197 166.972 149.999 166.972Z" fill="black" fill-opacity="0.5"/>
<path d="M179.347 166.972C181.149 166.972 182.61 165.479 182.61 163.636C182.61 161.794 181.149 160.301 179.347 160.301C177.545 160.301 176.084 161.794 176.084 163.636C176.084 165.479 177.545 166.972 179.347 166.972Z" fill="black" fill-opacity="0.5"/>
<path d="M208.695 166.972C210.497 166.972 211.958 165.479 211.958 163.636C211.958 161.794 210.497 160.301 208.695 160.301C206.892 160.301 205.432 161.794 205.432 163.636C205.432 165.479 206.892 166.972 208.695 166.972Z" fill="black" fill-opacity="0.5"/>
<path d="M238.042 166.972C239.844 166.972 241.305 165.479 241.305 163.636C241.305 161.794 239.844 160.301 238.042 160.301C236.24 160.301 234.779 161.794 234.779 163.636C234.779 165.479 236.24 166.972 238.042 166.972Z" fill="black" fill-opacity="0.5"/>
<path d="M267.39 166.972C269.192 166.972 270.653 165.479 270.653 163.636C270.653 161.794 269.192 160.301 267.39 160.301C265.588 160.301 264.127 161.794 264.127 163.636C264.127 165.479 265.588 166.972 267.39 166.972Z" fill="black" fill-opacity="0.5"/>
<path d="M296.738 166.972C298.54 166.972 300.001 165.479 300.001 163.636C300.001 161.794 298.54 160.301 296.738 160.301C294.936 160.301 293.475 161.794 293.475 163.636C293.475 165.479 294.936 166.972 296.738 166.972Z" fill="black" fill-opacity="0.5"/>
<path d="M6.52594 190.32C6.52594 192.155 5.05857 193.655 3.26297 193.655C1.46737 193.655 0 192.155 0 190.32C0 188.484 1.46737 186.984 3.26297 186.984C5.05857 186.984 6.52594 188.465 6.52594 190.32Z" fill="black" fill-opacity="0.5"/>
<path d="M35.8736 190.32C35.8736 192.155 34.4062 193.655 32.6106 193.655C30.815 193.655 29.3477 192.155 29.3477 190.32C29.3477 188.484 30.815 186.984 32.6106 186.984C34.4062 186.984 35.8736 188.465 35.8736 190.32Z" fill="black" fill-opacity="0.5"/>
<path d="M65.2213 190.32C65.2213 192.155 63.7539 193.655 61.9583 193.655C60.1627 193.655 58.6953 192.155 58.6953 190.32C58.6953 188.484 60.1627 186.984 61.9583 186.984C63.7539 186.984 65.2213 188.465 65.2213 190.32Z" fill="black" fill-opacity="0.5"/>
<path d="M94.5689 190.32C94.5689 192.155 93.1015 193.655 91.3059 193.655C89.5103 193.655 88.043 192.155 88.043 190.32C88.043 188.484 89.5103 186.984 91.3059 186.984C93.1015 186.984 94.5689 188.465 94.5689 190.32Z" fill="black" fill-opacity="0.5"/>
<path d="M123.915 190.32C123.915 192.155 122.447 193.655 120.652 193.655C118.856 193.655 117.389 192.155 117.389 190.32C117.389 188.484 118.856 186.984 120.652 186.984C122.447 186.984 123.915 188.465 123.915 190.32Z" fill="black" fill-opacity="0.5"/>
<path d="M153.262 190.32C153.262 192.155 151.795 193.655 149.999 193.655C148.204 193.655 146.736 192.155 146.736 190.32C146.736 188.484 148.204 186.984 149.999 186.984C151.795 186.984 153.262 188.465 153.262 190.32Z" fill="black" fill-opacity="0.5"/>
<path d="M182.61 190.32C182.61 192.155 181.143 193.655 179.347 193.655C177.551 193.655 176.084 192.155 176.084 190.32C176.084 188.484 177.551 186.984 179.347 186.984C181.143 186.984 182.61 188.465 182.61 190.32Z" fill="black" fill-opacity="0.5"/>
<path d="M211.958 190.32C211.958 192.155 210.49 193.655 208.695 193.655C206.899 193.655 205.432 192.155 205.432 190.32C205.432 188.484 206.899 186.984 208.695 186.984C210.49 186.984 211.958 188.465 211.958 190.32Z" fill="black" fill-opacity="0.5"/>
<path d="M241.305 190.32C241.305 192.155 239.838 193.655 238.042 193.655C236.247 193.655 234.779 192.155 234.779 190.32C234.779 188.484 236.247 186.984 238.042 186.984C239.838 186.984 241.305 188.465 241.305 190.32Z" fill="black" fill-opacity="0.5"/>
<path d="M270.653 190.32C270.653 192.155 269.185 193.655 267.39 193.655C265.594 193.655 264.127 192.155 264.127 190.32C264.127 188.484 265.594 186.984 267.39 186.984C269.185 186.984 270.653 188.465 270.653 190.32Z" fill="black" fill-opacity="0.5"/>
<path d="M300.001 190.32C300.001 192.155 298.533 193.655 296.738 193.655C294.942 193.655 293.475 192.155 293.475 190.32C293.475 188.484 294.942 186.984 296.738 186.984C298.533 186.984 300.001 188.465 300.001 190.32Z" fill="black" fill-opacity="0.5"/>
<path d="M6.52594 216.985C6.52594 218.82 5.05857 220.32 3.26297 220.32C1.46737 220.32 0 218.82 0 216.985C0 215.149 1.46737 213.649 3.26297 213.649C5.05857 213.649 6.52594 215.13 6.52594 216.985Z" fill="black" fill-opacity="0.5"/>
<path d="M35.8736 216.985C35.8736 218.82 34.4062 220.32 32.6106 220.32C30.815 220.32 29.3477 218.82 29.3477 216.985C29.3477 215.149 30.815 213.649 32.6106 213.649C34.4062 213.649 35.8736 215.13 35.8736 216.985Z" fill="black" fill-opacity="0.5"/>
<path d="M65.2213 216.985C65.2213 218.82 63.7539 220.32 61.9583 220.32C60.1627 220.32 58.6953 218.82 58.6953 216.985C58.6953 215.149 60.1627 213.649 61.9583 213.649C63.7539 213.649 65.2213 215.13 65.2213 216.985Z" fill="black" fill-opacity="0.5"/>
<path d="M94.5689 216.985C94.5689 218.82 93.1015 220.32 91.3059 220.32C89.5103 220.32 88.043 218.82 88.043 216.985C88.043 215.149 89.5103 213.649 91.3059 213.649C93.1015 213.649 94.5689 215.13 94.5689 216.985Z" fill="black" fill-opacity="0.5"/>
<path d="M123.915 216.985C123.915 218.82 122.447 220.32 120.652 220.32C118.856 220.32 117.389 218.82 117.389 216.985C117.389 215.149 118.856 213.649 120.652 213.649C122.447 213.649 123.915 215.13 123.915 216.985Z" fill="black" fill-opacity="0.5"/>
<path d="M153.262 216.985C153.262 218.82 151.795 220.32 149.999 220.32C148.204 220.32 146.736 218.82 146.736 216.985C146.736 215.149 148.204 213.649 149.999 213.649C151.795 213.649 153.262 215.13 153.262 216.985Z" fill="black" fill-opacity="0.5"/>
<path d="M182.61 216.985C182.61 218.82 181.143 220.32 179.347 220.32C177.551 220.32 176.084 218.82 176.084 216.985C176.084 215.149 177.551 213.649 179.347 213.649C181.143 213.649 182.61 215.13 182.61 216.985Z" fill="black" fill-opacity="0.5"/>
<path d="M211.958 216.985C211.958 218.82 210.49 220.32 208.695 220.32C206.899 220.32 205.432 218.82 205.432 216.985C205.432 215.149 206.899 213.649 208.695 213.649C210.49 213.649 211.958 215.13 211.958 216.985Z" fill="black" fill-opacity="0.5"/>
<path d="M241.305 216.985C241.305 218.82 239.838 220.32 238.042 220.32C236.247 220.32 234.779 218.82 234.779 216.985C234.779 215.149 236.247 213.649 238.042 213.649C239.838 213.649 241.305 215.13 241.305 216.985Z" fill="black" fill-opacity="0.5"/>
<path d="M270.653 216.985C270.653 218.82 269.185 220.32 267.39 220.32C265.594 220.32 264.127 218.82 264.127 216.985C264.127 215.149 265.594 213.649 267.39 213.649C269.185 213.649 270.653 215.13 270.653 216.985Z" fill="black" fill-opacity="0.5"/>
<path d="M300.001 216.985C300.001 218.82 298.533 220.32 296.738 220.32C294.942 220.32 293.475 218.82 293.475 216.985C293.475 215.149 294.942 213.649 296.738 213.649C298.533 213.649 300.001 215.13 300.001 216.985Z" fill="black" fill-opacity="0.5"/>
<path d="M6.52594 243.649C6.52594 245.485 5.05857 246.985 3.26297 246.985C1.46737 246.985 0 245.485 0 243.649C0 241.814 1.46737 240.313 3.26297 240.313C5.05857 240.313 6.52594 241.814 6.52594 243.649Z" fill="black" fill-opacity="0.5"/>
<path d="M35.8736 243.649C35.8736 245.485 34.4062 246.985 32.6106 246.985C30.815 246.985 29.3477 245.485 29.3477 243.649C29.3477 241.814 30.815 240.313 32.6106 240.313C34.4062 240.313 35.8736 241.814 35.8736 243.649Z" fill="black" fill-opacity="0.5"/>
<path d="M65.2213 243.649C65.2213 245.485 63.7539 246.985 61.9583 246.985C60.1627 246.985 58.6953 245.485 58.6953 243.649C58.6953 241.814 60.1627 240.313 61.9583 240.313C63.7539 240.313 65.2213 241.814 65.2213 243.649Z" fill="black" fill-opacity="0.5"/>
<path d="M94.5689 243.649C94.5689 245.485 93.1015 246.985 91.3059 246.985C89.5103 246.985 88.043 245.485 88.043 243.649C88.043 241.814 89.5103 240.313 91.3059 240.313C93.1015 240.313 94.5689 241.814 94.5689 243.649Z" fill="black" fill-opacity="0.5"/>
<path d="M123.915 243.649C123.915 245.485 122.447 246.985 120.652 246.985C118.856 246.985 117.389 245.485 117.389 243.649C117.389 241.814 118.856 240.313 120.652 240.313C122.447 240.313 123.915 241.814 123.915 243.649Z" fill="black" fill-opacity="0.5"/>
<path d="M153.262 243.649C153.262 245.485 151.795 246.985 149.999 246.985C148.204 246.985 146.736 245.485 146.736 243.649C146.736 241.814 148.204 240.313 149.999 240.313C151.795 240.313 153.262 241.814 153.262 243.649Z" fill="black" fill-opacity="0.5"/>
<path d="M182.61 243.649C182.61 245.485 181.143 246.985 179.347 246.985C177.551 246.985 176.084 245.485 176.084 243.649C176.084 241.814 177.551 240.313 179.347 240.313C181.143 240.313 182.61 241.814 182.61 243.649Z" fill="black" fill-opacity="0.5"/>
<path d="M211.958 243.649C211.958 245.485 210.49 246.985 208.695 246.985C206.899 246.985 205.432 245.485 205.432 243.649C205.432 241.814 206.899 240.313 208.695 240.313C210.49 240.313 211.958 241.814 211.958 243.649Z" fill="black" fill-opacity="0.5"/>
<path d="M241.305 243.649C241.305 245.485 239.838 246.985 238.042 246.985C236.247 246.985 234.779 245.485 234.779 243.649C234.779 241.814 236.247 240.313 238.042 240.313C239.838 240.313 241.305 241.814 241.305 243.649Z" fill="black" fill-opacity="0.5"/>
<path d="M270.653 243.649C270.653 245.485 269.185 246.985 267.39 246.985C265.594 246.985 264.127 245.485 264.127 243.649C264.127 241.814 265.594 240.313 267.39 240.313C269.185 240.313 270.653 241.814 270.653 243.649Z" fill="black" fill-opacity="0.5"/>
<path d="M300.001 243.649C300.001 245.485 298.533 246.985 296.738 246.985C294.942 246.985 293.475 245.485 293.475 243.649C293.475 241.814 294.942 240.313 296.738 240.313C298.533 240.313 300.001 241.814 300.001 243.649Z" fill="black" fill-opacity="0.5"/>
<path d="M3.26297 273.649C5.06506 273.649 6.52594 272.155 6.52594 270.313C6.52594 268.471 5.06506 266.978 3.26297 266.978C1.46088 266.978 0 268.471 0 270.313C0 272.155 1.46088 273.649 3.26297 273.649Z" fill="black" fill-opacity="0.5"/>
<path d="M32.6106 273.649C34.4127 273.649 35.8736 272.155 35.8736 270.313C35.8736 268.471 34.4127 266.978 32.6106 266.978C30.8085 266.978 29.3477 268.471 29.3477 270.313C29.3477 272.155 30.8085 273.649 32.6106 273.649Z" fill="black" fill-opacity="0.5"/>
<path d="M61.9583 273.649C63.7604 273.649 65.2213 272.155 65.2213 270.313C65.2213 268.471 63.7604 266.978 61.9583 266.978C60.1562 266.978 58.6953 268.471 58.6953 270.313C58.6953 272.155 60.1562 273.649 61.9583 273.649Z" fill="black" fill-opacity="0.5"/>
<path d="M94.5689 270.313C94.5689 272.149 93.1015 273.649 91.3059 273.649C89.5103 273.649 88.043 272.149 88.043 270.313C88.043 268.478 89.5103 266.978 91.3059 266.978C93.1015 266.978 94.5689 268.478 94.5689 270.313Z" fill="black" fill-opacity="0.5"/>
<path d="M123.915 270.313C123.915 272.149 122.447 273.649 120.652 273.649C118.856 273.649 117.389 272.149 117.389 270.313C117.389 268.478 118.856 266.978 120.652 266.978C122.447 266.978 123.915 268.478 123.915 270.313Z" fill="black" fill-opacity="0.5"/>
<path d="M149.999 273.649C151.801 273.649 153.262 272.155 153.262 270.313C153.262 268.471 151.801 266.978 149.999 266.978C148.197 266.978 146.736 268.471 146.736 270.313C146.736 272.155 148.197 273.649 149.999 273.649Z" fill="black" fill-opacity="0.5"/>
<path d="M179.347 273.649C181.149 273.649 182.61 272.155 182.61 270.313C182.61 268.471 181.149 266.978 179.347 266.978C177.545 266.978 176.084 268.471 176.084 270.313C176.084 272.155 177.545 273.649 179.347 273.649Z" fill="black" fill-opacity="0.5"/>
<path d="M208.695 273.649C210.497 273.649 211.958 272.155 211.958 270.313C211.958 268.471 210.497 266.978 208.695 266.978C206.892 266.978 205.432 268.471 205.432 270.313C205.432 272.155 206.892 273.649 208.695 273.649Z" fill="black" fill-opacity="0.5"/>
<path d="M238.042 273.649C239.844 273.649 241.305 272.155 241.305 270.313C241.305 268.471 239.844 266.978 238.042 266.978C236.24 266.978 234.779 268.471 234.779 270.313C234.779 272.155 236.24 273.649 238.042 273.649Z" fill="black" fill-opacity="0.5"/>
<path d="M267.39 273.649C269.192 273.649 270.653 272.155 270.653 270.313C270.653 268.471 269.192 266.978 267.39 266.978C265.588 266.978 264.127 268.471 264.127 270.313C264.127 272.155 265.588 273.649 267.39 273.649Z" fill="black" fill-opacity="0.5"/>
<path d="M296.738 273.649C298.54 273.649 300.001 272.155 300.001 270.313C300.001 268.471 298.54 266.978 296.738 266.978C294.936 266.978 293.475 268.471 293.475 270.313C293.475 272.155 294.936 273.649 296.738 273.649Z" fill="black" fill-opacity="0.5"/>
<path d="M6.52594 296.978C6.52594 298.814 5.05857 300.314 3.26297 300.314C1.46737 300.314 0 298.814 0 296.978C0 295.143 1.46737 293.643 3.26297 293.643C5.05857 293.643 6.52594 295.143 6.52594 296.978Z" fill="black" fill-opacity="0.5"/>
<path d="M35.8736 296.978C35.8736 298.814 34.4062 300.314 32.6106 300.314C30.815 300.314 29.3477 298.814 29.3477 296.978C29.3477 295.143 30.815 293.643 32.6106 293.643C34.4062 293.643 35.8736 295.143 35.8736 296.978Z" fill="black" fill-opacity="0.5"/>
<path d="M65.2213 296.978C65.2213 298.814 63.7539 300.314 61.9583 300.314C60.1627 300.314 58.6953 298.814 58.6953 296.978C58.6953 295.143 60.1627 293.643 61.9583 293.643C63.7539 293.643 65.2213 295.143 65.2213 296.978Z" fill="black" fill-opacity="0.5"/>
<path d="M94.5689 296.978C94.5689 298.814 93.1015 300.314 91.3059 300.314C89.5103 300.314 88.043 298.814 88.043 296.978C88.043 295.143 89.5103 293.643 91.3059 293.643C93.1015 293.643 94.5689 295.143 94.5689 296.978Z" fill="black" fill-opacity="0.5"/>
<path d="M123.915 296.978C123.915 298.814 122.447 300.314 120.652 300.314C118.856 300.314 117.389 298.814 117.389 296.978C117.389 295.143 118.856 293.643 120.652 293.643C122.447 293.643 123.915 295.143 123.915 296.978Z" fill="black" fill-opacity="0.5"/>
<path d="M153.262 296.978C153.262 298.814 151.795 300.314 149.999 300.314C148.204 300.314 146.736 298.814 146.736 296.978C146.736 295.143 148.204 293.643 149.999 293.643C151.795 293.643 153.262 295.143 153.262 296.978Z" fill="black" fill-opacity="0.5"/>
<path d="M182.61 296.978C182.61 298.814 181.143 300.314 179.347 300.314C177.551 300.314 176.084 298.814 176.084 296.978C176.084 295.143 177.551 293.643 179.347 293.643C181.143 293.643 182.61 295.143 182.61 296.978Z" fill="black" fill-opacity="0.5"/>
<path d="M211.958 296.978C211.958 298.814 210.49 300.314 208.695 300.314C206.899 300.314 205.432 298.814 205.432 296.978C205.432 295.143 206.899 293.643 208.695 293.643C210.49 293.643 211.958 295.143 211.958 296.978Z" fill="black" fill-opacity="0.5"/>
<path d="M241.305 296.978C241.305 298.814 239.838 300.314 238.042 300.314C236.247 300.314 234.779 298.814 234.779 296.978C234.779 295.143 236.247 293.643 238.042 293.643C239.838 293.643 241.305 295.143 241.305 296.978Z" fill="black" fill-opacity="0.5"/>
<path d="M270.653 296.978C270.653 298.814 269.185 300.314 267.39 300.314C265.594 300.314 264.127 298.814 264.127 296.978C264.127 295.143 265.594 293.643 267.39 293.643C269.185 293.643 270.653 295.143 270.653 296.978Z" fill="black" fill-opacity="0.5"/>
<path d="M300.001 296.978C300.001 298.814 298.533 300.314 296.738 300.314C294.942 300.314 293.475 298.814 293.475 296.978C293.475 295.143 294.942 293.643 296.738 293.643C298.533 293.643 300.001 295.143 300.001 296.978Z" fill="black" fill-opacity="0.5"/>
</svg>
