<svg width="18" height="20" viewBox="0 0 18 20" fill="none" xmlns="http://www.w3.org/2000/svg">
<path d="M5.66667 8.33268H12.3333M5.66667 11.666H12.3333M5.66667 14.9993H9M5.66667 3.33268C5.66667 4.25316 6.41286 4.99935 7.33333 4.99935H10.6667C11.5871 4.99935 12.3333 4.25316 12.3333 3.33268M5.66667 3.33268C5.66667 2.41221 6.41286 1.66602 7.33333 1.66602H10.6667C11.5871 1.66602 12.3333 2.41221 12.3333 3.33268M5.66667 3.33268H4.83333C2.99238 3.33268 1.5 4.82507 1.5 6.66602V14.9993C1.5 16.8403 2.99238 18.3327 4.83333 18.3327H13.1667C15.0076 18.3327 16.5 16.8403 16.5 14.9993V6.66602C16.5 4.82507 15.0076 3.33268 13.1667 3.33268H12.3333" stroke="#B3B3B6" stroke-width="1.5" stroke-linecap="round"/>
</svg>
