<svg width="18" height="20" viewBox="0 0 18 20" fill="none" xmlns="http://www.w3.org/2000/svg">
<path d="M5.66667 8.33342H12.3333M5.66667 11.6667H12.3333M5.66667 15.0001H9M5.66667 3.33341C5.66667 4.25389 6.41286 5.00008 7.33333 5.00008H10.6667C11.5871 5.00008 12.3333 4.25389 12.3333 3.33341M5.66667 3.33341C5.66667 2.41294 6.41286 1.66675 7.33333 1.66675H10.6667C11.5871 1.66675 12.3333 2.41294 12.3333 3.33341M5.66667 3.33341H4.83333C2.99238 3.33341 1.5 4.8258 1.5 6.66675V15.0001C1.5 16.841 2.99238 18.3334 4.83333 18.3334H13.1667C15.0076 18.3334 16.5 16.841 16.5 15.0001V6.66675C16.5 4.8258 15.0076 3.33341 13.1667 3.33341H12.3333" stroke="#B3B3B6" stroke-width="1.5" stroke-linecap="round"/>
</svg>
