<svg width="20" height="20" viewBox="0 0 20 20" fill="none" xmlns="http://www.w3.org/2000/svg">
<path d="M13.5346 8.8215C12.8838 9.47237 11.8285 9.47237 11.1776 8.8215C10.5267 8.17062 10.5267 7.11535 11.1776 6.46447C11.8285 5.8136 12.8838 5.8136 13.5346 6.46447C14.1855 7.11535 14.1855 8.17062 13.5346 8.8215Z" stroke="#B3B3B6" stroke-width="1.5"/>
<path d="M7.84323 3.90751C8.54066 3.21008 9.50394 2.84814 10.4802 2.91668L13.7838 3.14862C15.4334 3.26442 16.7359 4.56692 16.8517 6.21648L17.0836 9.52008C17.1522 10.4964 16.7902 11.4597 16.0928 12.1571L10.6217 17.6282C9.30223 18.9477 7.17733 18.962 5.87558 17.6603L2.34005 14.1247C1.0383 12.823 1.05265 10.6981 2.3721 9.37864L7.84323 3.90751Z" stroke="#B3B3B6" stroke-width="1.5" stroke-linejoin="round"/>
</svg>
