<svg width="16" height="18" viewBox="0 0 16 18" fill="none" xmlns="http://www.w3.org/2000/svg">
<path fill-rule="evenodd" clip-rule="evenodd" d="M15.5 7.45869V13.9725C15.5 15.8287 14.0076 17.3334 12.1667 17.3334H3.83333C1.99238 17.3334 0.5 15.8287 0.5 13.9725V7.45869C0.5 6.44956 0.949704 5.49383 1.72488 4.85552L5.89155 1.42454C7.11859 0.414153 8.88141 0.414151 10.1084 1.42454L14.2751 4.85552C15.0503 5.49383 15.5 6.44956 15.5 7.45869ZM6.33333 13.3751C5.98816 13.3751 5.70833 13.6549 5.70833 14.0001C5.70833 14.3453 5.98816 14.6251 6.33333 14.6251H9.66667C10.0118 14.6251 10.2917 14.3453 10.2917 14.0001C10.2917 13.6549 10.0118 13.3751 9.66667 13.3751H6.33333Z" fill="#1A47E5"/>
</svg>
