<svg width="40" height="40" viewBox="0 0 40 40" fill="none" xmlns="http://www.w3.org/2000/svg">
<path fill-rule="evenodd" clip-rule="evenodd" d="M14.5554 0.0192832C12.082 0.301683 10.7266 0.660669 8.92413 1.51096C7.24724 2.30193 6.11823 3.0833 4.76337 4.3906C2.84497 6.24176 1.5159 8.34187 0.710327 10.795C0.11324 12.6133 -0.00213936 13.4098 2.97394e-05 15.6972C0.00169828 17.5515 0.0184671 17.7769 0.226284 18.7471C1.24926 23.5218 4.26265 27.4711 8.51825 29.6142L9.10533 29.9098L9.61106 30.9376C14.4241 40.7201 27.312 42.9941 35.105 35.4358C38.271 32.3652 40.0032 28.2821 40 23.8972C39.9961 18.5505 37.2616 13.4861 32.7921 10.5482C32.0769 10.078 30.1406 9.06618 29.9513 9.0636C29.9034 9.06293 29.6989 8.75325 29.4967 8.37532C27.7105 5.03683 24.8694 2.48981 21.3965 1.11393C20.2346 0.653578 19.133 0.349404 18.0177 0.180965C17.1788 0.0543225 15.0994 -0.0428699 14.5554 0.0192832ZM18.0476 2.76611C19.0869 2.99587 20.0439 3.29746 20.7566 3.61974C23.9049 5.04359 26.2467 7.40791 27.5594 10.4877C27.8968 11.2796 28.3578 12.8333 28.3035 12.9961C28.288 13.0428 26.7932 12.0426 24.9818 10.7734C23.1704 9.50426 19.86 7.18482 17.6251 5.61915C15.3903 4.05348 13.5774 2.75677 13.5965 2.73767C13.8039 2.53043 17.0758 2.55129 18.0476 2.76611ZM17.7257 8.98217C21.7865 11.8386 25.8691 14.7058 26.7982 15.3537L28.4873 16.5315L28.4384 17.032C28.3181 18.2622 27.8729 19.8318 27.2844 21.1015C26.8048 22.1363 26.9888 22.1522 25.2753 20.9281C22.1784 18.7158 8.07092 8.60867 6.67694 7.60354L5.76458 6.94572L6.53261 6.22383C6.95492 5.8268 7.59447 5.29028 7.95379 5.03157C8.67284 4.51383 10.1274 3.71042 10.259 3.75831C10.3048 3.775 13.6649 6.12572 17.7257 8.98217ZM15.3317 17.0728L25.3157 24.2047L24.7118 24.8183C23.7783 25.7667 22.5277 26.678 21.3196 27.2902L20.8994 27.5031L18.374 25.6476C11.2937 20.4455 6.71014 17.0834 4.77822 15.6749L2.63457 14.1121L2.68196 13.695C2.80676 12.5962 3.45165 10.5986 4.02096 9.54714L4.23411 9.15345L4.79099 9.54714C5.09725 9.76363 9.84065 13.1501 15.3317 17.0728ZM32.0452 13.3734C32.9073 14.0252 34.2955 15.4987 34.9026 16.4063C37.9907 21.0232 37.9913 26.7754 34.9041 31.4271C34.2255 32.4496 32.4843 34.1995 31.4494 34.8991C29.9501 35.9126 28.2346 36.634 26.4021 37.0219C25.1242 37.2924 22.9062 37.2959 21.5837 37.0297C19.7322 36.6571 18.0149 35.9487 16.4894 34.9283C15.265 34.1093 13.5881 32.4119 12.8554 31.2499L12.7198 31.0349L13.4499 31.1531C14.3833 31.3043 17.2036 31.2486 18.2105 31.0591C24.4307 29.8885 29.2147 25.4754 30.7755 19.4683C31.2333 17.7062 31.3718 15.3214 31.1152 13.6188C31.0466 13.1639 30.9906 12.7561 30.9906 12.7124C30.9906 12.6134 31.2795 12.7945 32.0452 13.3734ZM10.1734 22.9428C14.2356 25.9183 17.5777 28.3829 17.6004 28.4196C17.6635 28.5218 16.5522 28.6163 15.3897 28.6077C9.5112 28.5642 4.37786 24.5491 2.93699 18.8674C2.65918 17.772 2.60846 17.4711 2.70732 17.5051C2.75153 17.5202 6.11122 19.9672 10.1734 22.9428Z" fill="#99B6F8"/>
<mask id="mask0_572_35292" style="mask-type:alpha" maskUnits="userSpaceOnUse" x="0" y="0" width="32" height="32">
<circle cx="15.5748" cy="15.5748" r="15.5748" fill="#D9D9D9"/>
</mask>
<g mask="url(#mask0_572_35292)">
<path fill-rule="evenodd" clip-rule="evenodd" d="M14.5554 0.0192832C12.082 0.301683 10.7266 0.660669 8.92413 1.51096C7.24724 2.30193 6.11823 3.0833 4.76337 4.3906C2.84497 6.24176 1.5159 8.34187 0.710327 10.795C0.11324 12.6133 -0.00213936 13.4098 2.97394e-05 15.6972C0.00169828 17.5515 0.0184671 17.7769 0.226284 18.7471C1.24926 23.5218 4.26265 27.4711 8.51825 29.6142L9.10533 29.9098L9.61106 30.9376C14.4241 40.7201 27.312 42.9941 35.105 35.4358C38.271 32.3652 40.0032 28.2821 40 23.8972C39.9961 18.5505 37.2616 13.4861 32.7921 10.5482C32.0769 10.078 30.1406 9.06618 29.9513 9.0636C29.9034 9.06293 29.6989 8.75325 29.4967 8.37533C27.7105 5.03683 24.8694 2.48981 21.3965 1.11393C20.2346 0.653578 19.133 0.349404 18.0177 0.180965C17.1788 0.0543225 15.0994 -0.0428699 14.5554 0.0192832ZM18.0476 2.76611C19.0869 2.99587 20.0439 3.29746 20.7566 3.61974C23.9049 5.04359 26.2467 7.40791 27.5594 10.4877C27.8968 11.2796 28.3578 12.8333 28.3035 12.9961C28.288 13.0428 26.7932 12.0426 24.9818 10.7734C23.1704 9.50426 19.86 7.18482 17.6251 5.61915C15.3903 4.05348 13.5774 2.75677 13.5965 2.73767C13.8039 2.53043 17.0758 2.55129 18.0476 2.76611ZM17.7257 8.98217C21.7865 11.8386 25.8691 14.7058 26.7982 15.3537L28.4873 16.5315L28.4384 17.032C28.3181 18.2622 27.8729 19.8318 27.2844 21.1015C26.8048 22.1363 26.9888 22.1522 25.2753 20.9281C22.1784 18.7158 8.07092 8.60867 6.67694 7.60354L5.76458 6.94572L6.53261 6.22383C6.95492 5.8268 7.59447 5.29028 7.95379 5.03157C8.67284 4.51383 10.1274 3.71042 10.259 3.75831C10.3048 3.775 13.6649 6.12572 17.7257 8.98217ZM15.3317 17.0728L25.3157 24.2047L24.7118 24.8183C23.7783 25.7667 22.5277 26.678 21.3196 27.2902L20.8994 27.5031L18.374 25.6476C11.2937 20.4455 6.71014 17.0834 4.77822 15.6749L2.63457 14.1121L2.68196 13.695C2.80676 12.5962 3.45165 10.5986 4.02096 9.54714L4.23411 9.15345L4.79099 9.54714C5.09725 9.76363 9.84065 13.1501 15.3317 17.0728ZM32.0452 13.3734C32.9073 14.0252 34.2955 15.4987 34.9026 16.4062C37.9907 21.0232 37.9913 26.7754 34.9041 31.4271C34.2255 32.4496 32.4843 34.1996 31.4494 34.8991C29.9501 35.9126 28.2346 36.634 26.4021 37.0219C25.1242 37.2924 22.9062 37.2959 21.5837 37.0297C19.7322 36.6571 18.0149 35.9487 16.4894 34.9283C15.265 34.1093 13.5881 32.4119 12.8554 31.2499L12.7198 31.0349L13.4499 31.1531C14.3833 31.3043 17.2036 31.2486 18.2105 31.0591C24.4307 29.8885 29.2147 25.4754 30.7755 19.4683C31.2333 17.7062 31.3718 15.3214 31.1152 13.6188C31.0466 13.1639 30.9906 12.7561 30.9906 12.7124C30.9906 12.6134 31.2795 12.7945 32.0452 13.3734ZM10.1734 22.9428C14.2356 25.9183 17.5777 28.3829 17.6004 28.4196C17.6635 28.5218 16.5522 28.6163 15.3897 28.6077C9.5112 28.5642 4.37786 24.5491 2.93699 18.8674C2.65918 17.772 2.60846 17.4711 2.70732 17.5051C2.75153 17.5202 6.11122 19.9672 10.1734 22.9428Z" fill="#336DF1"/>
</g>
</svg>
