<svg width="40" height="42" viewBox="0 0 40 42" fill="none" xmlns="http://www.w3.org/2000/svg">
<path fill-rule="evenodd" clip-rule="evenodd" d="M15.8794 0.060574C14.8773 0.305119 13.9263 1.15674 13.5947 2.10644C13.5295 2.29313 13.3707 3.07801 13.2418 3.85065C12.9282 5.73014 12.6459 6.26182 11.7185 6.72031C11.3466 6.90423 11.1581 6.9447 10.6946 6.94029C10.1969 6.93556 9.9612 6.87045 8.79406 6.41555C7.46615 5.8979 7.45888 5.89619 6.61385 5.89284C5.8301 5.88974 5.72626 5.90851 5.24112 6.14138C4.95228 6.27993 4.55201 6.56193 4.35095 6.76845C3.92153 7.20956 0.371734 13.3591 0.126904 14.086C-0.0830423 14.7093 -0.0263568 15.694 0.254729 16.3058C0.550673 16.9499 0.838462 17.2685 1.98469 18.2209C2.55437 18.6943 3.10354 19.1867 3.20504 19.3153C3.90376 20.2005 3.91361 21.5026 3.2283 22.3829C3.13956 22.4969 2.58417 22.9937 1.99406 23.4867C0.827399 24.4617 0.562866 24.7558 0.256021 25.4191C-0.02563 26.0282 -0.0836076 27.0138 0.125612 27.6349C0.208783 27.8818 1.11018 29.5436 2.12874 31.328C4.15101 34.8709 4.3566 35.1519 5.24112 35.5808C5.7282 35.817 5.82703 35.8351 6.61385 35.832C7.45888 35.8287 7.46615 35.827 8.79406 35.3093C9.9612 34.8544 10.1969 34.7893 10.6946 34.7846C11.636 34.7756 12.3929 35.2521 12.8382 36.1343C12.9408 36.3376 13.0996 37.0218 13.2418 37.8742C13.5048 39.4501 13.6079 39.8032 13.954 40.3114C14.2938 40.8105 14.7185 41.164 15.3309 41.4571L15.8596 41.7103L19.7698 41.7344C22.2417 41.7497 23.8228 41.7276 24.068 41.6744C25.0509 41.4615 25.8324 40.8429 26.2733 39.9292C26.5049 39.4491 26.5981 39.086 26.7921 37.9077C27.055 36.3106 27.2327 35.8384 27.7405 35.3879C28.2225 34.9603 28.6943 34.7835 29.3446 34.787C29.8418 34.7896 30.0701 34.8525 31.2422 35.3093C32.5701 35.827 32.5774 35.8287 33.4224 35.832C34.2092 35.8351 34.3081 35.817 34.7951 35.5808C35.6784 35.1524 35.8869 34.8681 37.8841 31.3688C38.8897 29.6069 39.7765 28.0184 39.8548 27.8389C39.959 27.6001 39.9979 27.2936 39.9999 26.6966C40.0022 25.9829 39.9761 25.8243 39.7919 25.4318C39.4816 24.771 39.2114 24.4725 38.0155 23.4695C36.8636 22.5034 36.5603 22.1382 36.3688 21.4868C36.218 20.9733 36.218 20.7515 36.3688 20.2381C36.5622 19.5804 36.8768 19.201 38.0143 18.2543C39.1967 17.2701 39.4798 16.9578 39.7919 16.293C39.9761 15.9006 40.0022 15.7419 39.9999 15.0283C39.9979 14.4313 39.959 14.1248 39.8548 13.8859C39.7765 13.7064 38.8897 12.118 37.8841 10.3561C35.8869 6.85674 35.6784 6.57246 34.7951 6.14408C34.3081 5.90786 34.2092 5.88974 33.4224 5.89284C32.5774 5.89619 32.5701 5.8979 31.2422 6.41555C30.075 6.87045 29.8393 6.93556 29.3417 6.94029C28.4003 6.94927 27.6434 6.47275 27.1981 5.59085C27.0959 5.38841 26.9372 4.70553 26.7967 3.86468C26.6689 3.09947 26.5016 2.29697 26.4248 2.08123C26.1461 1.29798 25.3832 0.517677 24.5631 0.176931C24.1985 0.0254876 23.951 0.0155328 20.1796 0.00149823C17.9812 -0.00674301 16.0462 0.0198574 15.8794 0.060574ZM23.4097 3.25801C23.4097 3.26927 23.5175 3.90842 23.6492 4.67844C23.9956 6.70269 24.3958 7.58907 25.4163 8.59181C26.5589 9.71474 28.2115 10.3401 29.708 10.2159C30.4888 10.1511 30.7105 10.0911 32.1924 9.54355C32.8703 9.29305 33.4364 9.10276 33.4502 9.12071C33.464 9.13866 34.228 10.4724 35.1478 12.0845C36.4812 14.4211 36.7993 15.0348 36.7162 15.1097C36.6589 15.1615 36.2039 15.5432 35.7051 15.958C34.5484 16.9199 34.0778 17.4573 33.6691 18.2828C33.2188 19.1923 33.0715 19.8277 33.0715 20.8624C33.0715 21.8972 33.2188 22.5326 33.6691 23.4421C34.0778 24.2675 34.5484 24.8049 35.7051 25.7669C36.2039 26.1817 36.6587 26.5633 36.7158 26.6147C36.7983 26.6891 36.4766 27.3096 35.1472 29.6399C34.2273 31.2523 33.4635 32.5862 33.4499 32.6042C33.4362 32.6221 32.8703 32.4318 32.1924 32.1813C30.7105 31.6338 30.4888 31.5738 29.708 31.509C28.2165 31.3852 26.5477 32.0148 25.4157 33.1282C24.4008 34.1265 23.9947 35.0273 23.6492 37.0464C23.5175 37.8165 23.4097 38.4557 23.4097 38.4669C23.4096 38.478 21.8834 38.4873 20.0181 38.4873C18.1528 38.4873 16.6267 38.478 16.6266 38.4669C16.6265 38.4557 16.5187 37.8165 16.387 37.0464C16.0413 35.0261 15.6524 34.1623 14.6292 33.1427C13.5022 32.0195 11.83 31.3844 10.3283 31.509C9.54745 31.5738 9.32579 31.6338 7.84389 32.1813C7.16593 32.4318 6.59988 32.6221 6.58607 32.6042C6.34124 32.2857 3.23508 26.6936 3.28006 26.6524C3.31494 26.6204 3.77957 26.2294 4.31251 25.7837C5.44057 24.8403 5.86935 24.3717 6.27478 23.6391C6.7592 22.7638 6.95703 21.9585 6.95703 20.8624C6.95703 19.7664 6.7592 18.9611 6.27478 18.0858C5.86935 17.3532 5.44057 16.8846 4.31251 15.9412C3.77957 15.4954 3.31494 15.1045 3.28006 15.0725C3.23508 15.0312 6.34124 9.43918 6.58607 9.12071C6.59988 9.10276 7.16593 9.29305 7.84389 9.54355C9.51555 10.1612 9.67737 10.1992 10.6513 10.2025C11.6629 10.2059 12.2818 10.0608 13.1949 9.6058C13.9332 9.23789 14.4837 8.802 15.0255 8.15633C15.7614 7.27957 16.1089 6.39662 16.3836 4.70635C16.4748 4.14537 16.5697 3.58546 16.5945 3.462L16.6395 3.23761H20.0245C21.8863 3.23761 23.4096 3.24675 23.4097 3.25801Z" fill="#336DF1"/>
<path fill-rule="evenodd" clip-rule="evenodd" d="M18.8992 12.2223C17.6619 12.387 16.2166 12.9439 15.0685 13.6983C14.7339 13.9185 14.2584 14.3399 13.8176 14.7875C13.4058 15.2053 13.0236 15.6458 12.8122 15.9666C10.8022 19.0216 10.8022 22.7091 12.8122 25.7643C13.2495 26.4288 14.4214 27.6069 15.0685 28.0325C18.4313 30.2431 22.5507 30.0489 25.5788 27.5368C28.2317 25.3359 29.3458 21.6112 28.3251 18.3545C27.3401 15.2127 24.7713 12.8999 21.6089 12.308C20.8854 12.1727 19.5819 12.1316 18.8992 12.2223ZM20.0006 26.0869C22.8818 26.0869 25.2179 23.751 25.2179 20.8695C25.2179 17.988 22.8818 15.6521 20.0006 15.6521C17.1193 15.6521 14.7832 17.988 14.7832 20.8695C14.7832 23.751 17.1193 26.0869 20.0006 26.0869Z" fill="#99B6F8"/>
</svg>
