<svg width="40" height="30" viewBox="0 0 40 30" fill="none" xmlns="http://www.w3.org/2000/svg">
<path fill-rule="evenodd" clip-rule="evenodd" d="M33.2919 0.0592226C33.1844 0.103544 32.141 1.09378 30.9731 2.25966L28.8495 4.37936L27.8463 3.98351C26.2161 3.34034 24.668 2.93027 22.8564 2.66176C21.42 2.44891 18.3894 2.46915 16.8878 2.70163C12.9029 3.31853 9.38927 4.90129 6.05914 7.57949C5.00622 8.42637 3.00229 10.4405 2.15174 11.507C1.22357 12.6708 0.0873914 14.3854 0.0254038 14.7158C-0.0621448 15.1821 0.0567494 15.4906 0.696323 16.4572C2.56986 19.289 5.25714 21.995 7.96536 23.7773C8.41678 24.0744 8.80176 24.3293 8.82091 24.3438C8.83998 24.3583 8.00726 25.2221 6.97035 26.2635C5.35579 27.8851 5.07743 28.1989 5.03131 28.45C4.94493 28.9209 5.05468 29.2902 5.37658 29.6122C5.69808 29.9336 6.06649 30.0434 6.53879 29.9585C6.80096 29.9113 8.31219 28.4261 20.844 15.899C31.1417 5.60519 34.8791 1.82255 34.9429 1.62908C35.1165 1.10332 34.9234 0.542459 34.4459 0.186011C34.2095 0.00950706 33.58 -0.0596715 33.2919 0.0592226ZM22.661 5.17464C24.0038 5.37936 25.4967 5.77021 26.6821 6.22757L26.912 6.31629L25.6324 7.59763L24.3527 8.87904L24.1407 8.7281C23.7341 8.43856 22.4609 7.87169 21.8403 7.70394C21.0089 7.4792 19.1491 7.45653 18.3334 7.66118C16.9022 8.02036 15.7627 8.66548 14.723 9.7052C13.6828 10.7454 13.0362 11.8877 12.6797 13.3156C12.4686 14.1608 12.4895 15.9255 12.7208 16.7834C12.8948 17.4287 13.4168 18.6101 13.7411 19.0926L13.9009 19.3305L12.3109 20.9191L10.7209 22.5077L9.97968 22.0418C7.3848 20.4109 4.74912 17.9226 3.11939 15.565L2.7187 14.9855L3.11118 14.4188C4.49781 12.4162 6.90196 10.0044 8.94246 8.56903C11.6974 6.63107 14.9422 5.39859 18.1737 5.06255C19.1448 4.96155 21.6783 5.02487 22.661 5.17464ZM21.1167 10.134C21.5984 10.2571 22.5047 10.6316 22.5047 10.7074C22.5047 10.7176 20.9778 12.2526 19.1117 14.1183L15.7187 17.5106L15.5108 17.1004C15.2239 16.5342 15.0003 15.6079 15.0018 14.9925C15.0103 11.796 18.0797 9.3572 21.1167 10.134Z" fill="#336DF1"/>
<path d="M31.4982 8.85086C31.4958 8.80857 31.8713 8.3953 32.3327 7.93238C32.7942 7.46955 33.2102 7.09082 33.2573 7.09082C33.426 7.09082 34.9141 8.38513 35.9894 9.46714C37.2533 10.739 38.4538 12.2023 39.3243 13.5321C40.241 14.9325 40.2371 15.0663 39.2353 16.5648C38.2279 18.0718 37.3269 19.1625 35.9516 20.5399C32.1016 24.3961 27.8979 26.5694 22.8561 27.3104C21.4332 27.5196 18.459 27.5007 16.9935 27.2734C15.9324 27.1087 14.0774 26.693 13.8594 26.5709C13.7816 26.5274 14.029 26.2346 14.7597 25.5055L15.7673 24.5002L16.4585 24.629C17.7781 24.875 18.1728 24.9191 19.4558 24.9637C23.5616 25.1067 27.6901 23.8164 31.2202 21.2869C33.284 19.808 35.6196 17.4369 36.9676 15.4518L37.2848 14.9846L37.0338 14.6139C35.8915 12.9273 33.781 10.6813 32.1822 9.4508C31.8084 9.16314 31.5006 8.89315 31.4982 8.85086Z" fill="#99B6F8"/>
<path d="M24.9919 15.2753L26.0726 14.1926C26.667 13.597 27.1777 13.1098 27.2075 13.1098C27.339 13.1098 27.4661 14.0839 27.4625 15.064C27.4548 17.1659 26.7887 18.7507 25.2783 20.2612C23.8134 21.7261 21.9913 22.4963 20.0123 22.4873C19.4311 22.4846 18.2365 22.3129 18.142 22.2184C18.116 22.1924 18.5888 21.677 19.1928 21.0731L20.2908 19.9751L20.909 19.8677C21.9839 19.6811 23.105 19.0189 23.841 18.1359C24.315 17.5673 24.76 16.6108 24.8848 15.8927L24.9919 15.2753Z" fill="#99B6F8"/>
</svg>
