<svg width="40" height="40" viewBox="0 0 40 40" fill="none" xmlns="http://www.w3.org/2000/svg">
<path fill-rule="evenodd" clip-rule="evenodd" d="M20.2296 0.142984C18.7227 0.548158 17.5408 1.74692 17.1433 3.27313C17.0517 3.62472 17.0103 4.23645 17.0103 5.23784C17.0103 6.66206 17.0062 6.69362 16.8097 6.77367C13.5737 8.0935 11.3109 9.70903 9.45016 12.0284C8.40196 13.3347 8.15039 13.7671 8.15039 14.2619C8.15039 15.3283 9.26544 16.0089 10.2164 15.523C10.4293 15.4141 10.7109 15.1202 11.0067 14.6983C13.1592 11.6275 16.2974 9.58458 20.0201 8.83075C23.3251 8.16152 27.1118 8.82906 30.0251 10.5945C33.6136 12.7691 35.9996 16.2283 36.7692 20.3722C37.0153 21.6977 36.9976 24.132 36.7321 25.4587C36.4587 26.8245 36.0767 27.9431 35.4552 29.1978C34.7561 30.6092 33.9339 31.7487 32.7873 32.8954C30.7435 34.9391 28.2609 36.2562 25.3507 36.8408C23.9411 37.1239 21.4925 37.1243 20.0856 36.8417C19.1073 36.6452 17.7213 36.2132 16.8766 35.8414C15.3236 35.1581 14.0235 36.9923 15.2494 38.1371C15.6902 38.5488 17.8527 39.3301 19.4619 39.659C24.4194 40.6724 29.6565 39.3983 33.5917 36.2214C34.3948 35.5731 35.7454 34.2147 36.3207 33.4769C38.1695 31.1054 39.3985 28.1795 39.8403 25.097C39.9878 24.0677 39.9865 21.7736 39.8377 20.6842C38.9902 14.4783 35.0031 9.35743 29.1789 6.99467L28.4657 6.7053L28.4157 5.02523C28.3736 3.60627 28.3368 3.27241 28.1793 2.87749C27.6079 1.44436 26.5702 0.504922 25.1501 0.13505C24.443 -0.0491289 20.9227 -0.0434234 20.2296 0.142984ZM24.9104 3.08315C25.4603 3.49421 25.5214 3.66466 25.5537 4.8792C25.5809 5.90262 25.5704 5.9947 25.4325 5.94184C25.3494 5.90993 24.7075 5.83638 24.0061 5.77834C23.0186 5.6966 22.4527 5.69704 21.4975 5.78004C20.8192 5.83905 20.174 5.91171 20.0636 5.94148C19.8644 5.99533 19.863 5.98882 19.863 5.01052C19.863 3.96651 19.934 3.65316 20.2479 3.31146C20.6342 2.89059 20.8457 2.85502 22.8209 2.87794C24.5252 2.89773 24.683 2.91324 24.9104 3.08315ZM29.3536 15.7719C29.2534 15.8153 28.2306 16.5978 27.0805 17.5108C25.9304 18.4238 24.9492 19.1526 24.9001 19.1303C24.1043 18.7687 23.5816 18.6115 23.0399 18.5705C20.1661 18.3537 17.854 21.0841 18.5731 23.8452C19.1678 26.1283 21.5069 27.5472 23.7237 26.9698C25.2696 26.5671 26.4578 25.3828 26.8583 23.8452C27.0259 23.2017 27.03 22.5841 26.8712 21.9093L26.7504 21.396L28.8115 19.7369C29.9452 18.8243 30.9406 17.9746 31.0237 17.8486C31.4074 17.2666 31.2373 16.3777 30.6642 15.9697C30.362 15.7545 29.6438 15.6461 29.3536 15.7719ZM23.2799 21.519C24.1958 21.9017 24.4192 23.1025 23.7069 23.8149C22.7053 24.8165 21.064 23.9194 21.3275 22.5143C21.4851 21.6751 22.4617 21.1771 23.2799 21.519Z" fill="#336DF1"/>
<path d="M2.92978 20.9209C2.80345 20.2474 3.14284 19.5646 3.73317 19.3048C3.95132 19.2088 4.9331 19.1891 8.70109 19.2053C13.2891 19.2248 13.4029 19.2294 13.6433 19.409C14.1111 19.7584 14.257 20.0432 14.257 20.607C14.257 21.1708 14.1111 21.4556 13.6433 21.805C13.4033 21.9842 13.2825 21.9895 8.79032 22.0159C5.71296 22.034 4.07514 22.0114 3.85735 21.9479C3.4528 21.83 3.00787 21.3374 2.92978 20.9209Z" fill="#99B6F8"/>
<path d="M0.0770609 26.6263C-0.04935 25.9527 0.290301 25.2697 0.880457 25.0105C1.10047 24.9139 2.32099 24.8949 7.27473 24.9109C13.3037 24.9304 13.4009 24.9334 13.6432 25.1145C14.1111 25.4638 14.257 25.7487 14.257 26.3124C14.257 26.8762 14.1111 27.1611 13.6432 27.5104C13.4012 27.6912 13.2972 27.6947 7.36388 27.7211C3.28949 27.7391 1.22483 27.717 1.00464 27.653C0.600177 27.5355 0.155243 27.0429 0.0770609 26.6263Z" fill="#99B6F8"/>
<path d="M2.92978 32.3318C2.80345 31.6582 3.14284 30.9755 3.73317 30.7157C3.95132 30.6197 4.9331 30.6 8.70109 30.6161C13.2891 30.6356 13.4029 30.6403 13.6433 30.8199C14.1111 31.1693 14.257 31.4541 14.257 32.0179C14.257 32.5816 14.1111 32.8665 13.6433 33.2158C13.4033 33.3951 13.2825 33.4004 8.79032 33.4267C5.71296 33.4448 4.07514 33.4223 3.85735 33.3587C3.4528 33.2409 3.00787 32.7483 2.92978 32.3318Z" fill="#99B6F8"/>
</svg>
