<svg width="34" height="34" viewBox="0 0 34 34" fill="none" xmlns="http://www.w3.org/2000/svg">
<path d="M23.984 0.333496H10.0173C3.95065 0.333496 0.333984 3.95016 0.333984 10.0168V23.9668C0.333984 30.0502 3.95065 33.6668 10.0173 33.6668H23.9673C30.034 33.6668 33.6507 30.0502 33.6507 23.9835V10.0168C33.6673 3.95016 30.0507 0.333496 23.984 0.333496ZM16.3507 16.7335C16.3507 21.8668 15.234 23.0168 12.2507 24.7835C12.0507 24.9002 11.834 24.9502 11.6173 24.9502C11.184 24.9502 10.7673 24.7335 10.534 24.3335C10.184 23.7335 10.384 22.9668 10.9673 22.6168C12.984 21.4168 13.684 20.9835 13.8173 17.9668H10.6507C8.83398 17.9668 7.41732 16.5502 7.41732 14.7335V12.2668C7.41732 10.4502 8.83398 9.0335 10.6507 9.0335H13.134C14.9173 9.0335 16.3673 10.4835 16.3673 12.2668V16.7335H16.3507ZM26.584 16.7335C26.584 21.8668 25.4673 23.0168 22.484 24.7835C22.284 24.9002 22.0673 24.9502 21.8507 24.9502C21.4173 24.9502 21.0007 24.7335 20.7673 24.3335C20.4173 23.7335 20.6173 22.9668 21.2007 22.6168C23.2173 21.4168 23.9173 20.9835 24.0506 17.9668H20.8673C19.0506 17.9668 17.634 16.5502 17.634 14.7335V12.2668C17.634 10.4502 19.0506 9.0335 20.8673 9.0335H23.3507C25.134 9.0335 26.584 10.4835 26.584 12.2668V16.7335Z" fill="#1A47E5"/>
</svg>
