<svg width="14" height="13" viewBox="0 0 14 13" fill="none" xmlns="http://www.w3.org/2000/svg">
<path fill-rule="evenodd" clip-rule="evenodd" d="M0.333008 5.93906C0.333008 7.60039 1.23834 9.11839 2.63767 10.1237C2.76101 10.2057 2.82234 10.3284 2.82234 10.4924C2.82234 10.5131 2.81734 10.5387 2.81234 10.5644C2.80734 10.5901 2.80234 10.6157 2.80234 10.6364C2.69901 11.0464 2.51367 11.7237 2.49367 11.7437C2.48967 11.7554 2.4857 11.7663 2.48191 11.7767C2.46553 11.8218 2.45234 11.858 2.45234 11.9084C2.45304 11.9682 2.47719 12.0253 2.51958 12.0674C2.56198 12.1096 2.61923 12.1334 2.67901 12.1337C2.72269 12.1294 2.76484 12.1152 2.80234 12.0924L4.26301 11.2517C4.36634 11.1897 4.48967 11.1497 4.61301 11.1497C4.67434 11.1497 4.75701 11.1497 4.81834 11.1697C5.52659 11.3779 6.26147 11.4815 6.99967 11.4771C10.683 11.4771 13.6663 8.99506 13.6663 5.93906C13.6663 2.88239 10.683 0.400391 6.99967 0.400391C3.31634 0.400391 0.333008 2.88239 0.333008 5.93906ZM4.96767 6.15106C4.96767 6.62906 4.58901 7.00772 4.11101 7.00772C3.63234 7.00772 3.25434 6.62906 3.25434 6.15106C3.25434 5.67239 3.63234 5.29372 4.11101 5.29372C4.58901 5.29372 4.96767 5.67239 4.96767 6.15106ZM10.6663 6.15106C10.6663 6.62906 10.2883 7.00772 9.80968 7.00772C9.33167 7.00772 8.95301 6.62906 8.95301 6.15106C8.95301 5.67239 9.33167 5.29372 9.80968 5.29372C10.2883 5.29372 10.6663 5.67239 10.6663 6.15106ZM7.85634 6.15107C7.85634 6.62908 7.47767 7.00774 6.99967 7.00774C6.52101 7.00774 6.14301 6.62908 6.14301 6.15107C6.14301 5.67241 6.52101 5.29374 6.99967 5.29374C7.47767 5.29374 7.85634 5.67241 7.85634 6.15107Z" fill="#1A47E5"/>
</svg>
