<svg width="13" height="13" viewBox="0 0 13 13" fill="none" xmlns="http://www.w3.org/2000/svg">
<path d="M9.17133 1.00039L7.838 2.33372H1.33333V11.6671H10.6667V5.16239L12 3.82906V12.3337C12 12.5105 11.9298 12.6801 11.8047 12.8051C11.6797 12.9302 11.5101 13.0004 11.3333 13.0004H0.666667C0.489856 13.0004 0.320286 12.9302 0.195262 12.8051C0.0702379 12.6801 0 12.5105 0 12.3337V1.66706C0 1.49025 0.0702379 1.32068 0.195262 1.19565C0.320286 1.07063 0.489856 1.00039 0.666667 1.00039H9.17133ZM11.6567 0.400391L12.6 1.34439L6.472 7.47239L5.53067 7.47439L5.52933 6.52972L11.6567 0.400391Z" fill="#1A47E5"/>
</svg>
