<svg width="14" height="14" viewBox="0 0 14 14" fill="none" xmlns="http://www.w3.org/2000/svg">
<path d="M6.99967 0.333984C10.6817 0.333984 13.6663 3.31865 13.6663 7.00065C13.6663 10.6827 10.6817 13.6673 6.99967 13.6673C3.31767 13.6673 0.333008 10.6827 0.333008 7.00065H1.66634C1.66634 9.94598 4.05434 12.334 6.99967 12.334C9.94501 12.334 12.333 9.94598 12.333 7.00065C12.333 4.05532 9.94501 1.66732 6.99967 1.66732C5.35701 1.66732 3.88767 2.40998 2.90967 3.57732L4.33301 5.00065H0.333008V1.00065L1.96434 2.63132C3.18634 1.22465 4.98901 0.333984 6.99967 0.333984ZM7.66634 3.66732V6.72398L9.82834 8.88598L8.88501 9.82932L6.33301 7.27598V3.66732H7.66634Z" fill="#1A47E5"/>
</svg>
