<svg width="18" height="14" viewBox="0 0 18 14" fill="none" xmlns="http://www.w3.org/2000/svg">
<path fill-rule="evenodd" clip-rule="evenodd" d="M15.35 1.3H2.49553L8.99498 6.06627L15.35 1.3ZM1.45998 1.55457C1.44285 1.57532 1.42689 1.59707 1.4122 1.61973L1.45998 1.55457ZM1.3 2.28339V12C1.3 12.3866 1.6134 12.7 2 12.7H16C16.3866 12.7 16.7 12.3866 16.7 12V2.1625L9.45 7.6L9.00502 7.93373L8.55648 7.6048L1.3 2.28339ZM0 2C0 0.89543 0.895431 0 2 0H16C17.1046 0 18 0.895431 18 2V12C18 13.1046 17.1046 14 16 14H2C0.89543 14 0 13.1046 0 12V2Z" fill="black"/>
</svg>
