<svg width="15" height="19" viewBox="0 0 15 19" fill="none" xmlns="http://www.w3.org/2000/svg">
<path fill-rule="evenodd" clip-rule="evenodd" d="M13.9403 4.76981L10.3231 1.1073C10.2553 1.03863 10.1635 1 10.0674 1H2.47127C1.67331 1 1.02441 1.65702 1.02441 2.46501V17.115C1.02441 17.923 1.67331 18.58 2.4713 18.58H12.5995C13.3974 18.58 14.0463 17.923 14.0463 17.115V5.02874C14.0463 4.93146 14.0082 4.83848 13.9403 4.76981ZM10.4295 2.25L12.8117 4.6621H11.1529C10.7541 4.6621 10.4295 4.3334 10.4295 3.92961V2.25ZM12.5993 17.8474C12.9981 17.8474 13.3227 17.5187 13.3227 17.1149V5.3949H11.1524C10.3544 5.3949 9.70553 4.73788 9.70553 3.92992V1.73242H2.47115C2.07235 1.73242 1.74772 2.06112 1.74772 2.46491V17.1149C1.74772 17.5187 2.07235 17.8474 2.47115 17.8474H12.5993Z" fill="#1A47E5"/>
<path d="M10.3231 1.1073L10.5722 0.861357V0.861357L10.3231 1.1073ZM13.9403 4.76981L14.1894 4.52387L13.9403 4.76981ZM12.8117 4.6621V5.0121H13.6493L13.0607 4.41616L12.8117 4.6621ZM10.4295 2.25L10.6785 2.00406L10.0795 1.39753V2.25H10.4295ZM13.3227 5.3949H13.6727V5.0449H13.3227V5.3949ZM9.70553 1.73242H10.0555V1.38242H9.70553V1.73242ZM10.0741 1.35324L13.6913 5.01575L14.1894 4.52387L10.5722 0.861357L10.0741 1.35324ZM10.0674 1.35C10.0691 1.35 10.0715 1.35055 10.0741 1.35324L10.5722 0.861357C10.4392 0.726706 10.2579 0.65 10.0674 0.65V1.35ZM2.47127 1.35H10.0674V0.65H2.47127V1.35ZM1.37441 2.46501C1.37441 1.84619 1.8707 1.35 2.47127 1.35V0.65C1.47591 0.65 0.674414 1.46784 0.674414 2.46501H1.37441ZM1.37441 17.115V2.46501H0.674414V17.115H1.37441ZM2.4713 18.23C1.87069 18.23 1.37441 17.7338 1.37441 17.115H0.674414C0.674414 18.1122 1.47592 18.93 2.4713 18.93V18.23ZM12.5995 18.23H2.4713V18.93H12.5995V18.23ZM13.6963 17.115C13.6963 17.7338 13.2 18.23 12.5995 18.23V18.93C13.5948 18.93 14.3963 18.1122 14.3963 17.115H13.6963ZM13.6963 5.02874V17.115H14.3963V5.02874H13.6963ZM13.6913 5.01575C13.6941 5.0186 13.6963 5.02309 13.6963 5.02874H14.3963C14.3963 4.83984 14.3222 4.65836 14.1894 4.52387L13.6913 5.01575ZM13.0607 4.41616L10.6785 2.00406L10.1804 2.49594L12.5627 4.90804L13.0607 4.41616ZM11.1529 5.0121H12.8117V4.3121H11.1529V5.0121ZM10.0795 3.92961C10.0795 4.52258 10.5567 5.0121 11.1529 5.0121V4.3121C10.9515 4.3121 10.7795 4.14422 10.7795 3.92961H10.0795ZM10.0795 2.25V3.92961H10.7795V2.25H10.0795ZM12.9727 17.1149C12.9727 17.3295 12.8007 17.4974 12.5993 17.4974V18.1974C13.1955 18.1974 13.6727 17.7079 13.6727 17.1149H12.9727ZM12.9727 5.3949V17.1149H13.6727V5.3949H12.9727ZM11.1524 5.7449H13.3227V5.0449H11.1524V5.7449ZM9.35553 3.92992C9.35553 4.92707 10.157 5.7449 11.1524 5.7449V5.0449C10.5518 5.0449 10.0555 4.5487 10.0555 3.92992H9.35553ZM9.35553 1.73242V3.92992H10.0555V1.73242H9.35553ZM2.47115 2.08242H9.70553V1.38242H2.47115V2.08242ZM2.09772 2.46491C2.09772 2.2503 2.26975 2.08242 2.47115 2.08242V1.38242C1.87496 1.38242 1.39772 1.87194 1.39772 2.46491H2.09772ZM2.09772 17.1149V2.46491H1.39772V17.1149H2.09772ZM2.47115 17.4974C2.26975 17.4974 2.09772 17.3295 2.09772 17.1149H1.39772C1.39772 17.7079 1.87496 18.1974 2.47115 18.1974V17.4974ZM12.5993 17.4974H2.47115V18.1974H12.5993V17.4974Z" fill="#1A47E5"/>
<path fill-rule="evenodd" clip-rule="evenodd" d="M9.37923 11.7512C9.04436 11.4844 8.7261 11.21 8.51416 10.9954C8.23863 10.7165 7.99311 10.4461 7.77978 10.1886C8.11255 9.14738 8.25843 8.61054 8.25843 8.32439C8.25843 7.10869 7.82464 6.85938 7.17327 6.85938C6.67837 6.85938 6.08811 7.11974 6.08811 8.35944C6.08811 8.90597 6.38379 9.56944 6.96981 10.3406C6.85103 10.7076 6.71505 11.1212 6.56428 11.5798L6.46856 11.871C6.37741 12.1475 6.27853 12.4036 6.17394 12.6403C6.08883 12.6786 6.00615 12.7176 5.92632 12.758C5.64677 12.8996 5.3809 13.0272 5.13358 13.146L5.11246 13.1561C3.95734 13.7098 3.19434 14.076 3.19434 14.7992C3.19434 15.3243 3.75777 15.6494 4.27949 15.6494C4.95206 15.6494 5.96763 14.7398 6.70944 13.2076C7.47949 12.9 8.4368 12.6721 9.19238 12.5294C9.79783 13.0008 10.4665 13.4519 10.7904 13.4519C11.6873 13.4519 11.8756 12.9268 11.8756 12.4865C11.8756 11.6206 10.8985 11.6206 10.4287 11.6206C10.2828 11.6206 9.89146 11.6643 9.37923 11.7512ZM4.27937 14.9174C4.07272 14.9174 3.93284 14.8187 3.91764 14.7998C3.91764 14.5401 4.68241 14.1731 5.42211 13.8183L5.48868 13.7865L5.56519 13.75C5.02189 14.5476 4.4846 14.9174 4.27937 14.9174ZM7.17363 7.5918C7.04717 7.5918 6.8119 7.5918 6.8119 8.35934C6.8119 8.64584 6.96341 9.02532 7.24745 9.46812C7.43362 8.86508 7.53536 8.4788 7.53536 8.32429C7.53536 7.5918 7.42938 7.5918 7.17363 7.5918ZM7.08915 12.2959C7.11177 12.2323 7.13367 12.1679 7.15487 12.1028L7.233 11.8655L7.23305 11.8653C7.33644 11.5514 7.43125 11.2635 7.51765 10.999C7.66777 11.1664 7.82956 11.3377 8.00302 11.5133C8.07084 11.582 8.23897 11.7365 8.46296 11.93C8.01709 12.0284 7.54271 12.1503 7.08915 12.2959ZM10.8171 12.7219C11.1527 12.7197 11.1527 12.6514 11.1527 12.4869C11.1152 12.4064 10.9637 12.3535 10.4292 12.3535C10.3868 12.3535 10.3116 12.3592 10.2095 12.3707C10.4907 12.5645 10.7185 12.7004 10.8171 12.7219Z" fill="#1A47E5"/>
<path d="M8.51416 10.9954L8.62088 10.89L8.51416 10.9954ZM9.37923 11.7512L9.28576 11.8685L9.3382 11.9103L9.40432 11.8991L9.37923 11.7512ZM7.77978 10.1886L7.6369 10.1429L7.61191 10.2211L7.66426 10.2842L7.77978 10.1886ZM6.96981 10.3406L7.11252 10.3867L7.13665 10.3122L7.08923 10.2498L6.96981 10.3406ZM6.56428 11.5798L6.42179 11.533L6.42178 11.533L6.56428 11.5798ZM6.46856 11.871L6.61102 11.918L6.61106 11.9179L6.46856 11.871ZM6.17394 12.6403L6.23547 12.7771L6.28792 12.7536L6.31116 12.7009L6.17394 12.6403ZM5.92632 12.758L5.85857 12.6242L5.85857 12.6242L5.92632 12.758ZM5.13358 13.146L5.06865 13.0107L5.06865 13.0107L5.13358 13.146ZM5.11246 13.1561L5.17729 13.2914L5.17738 13.2913L5.11246 13.1561ZM6.70944 13.2076L6.6538 13.0683L6.59977 13.0899L6.57443 13.1422L6.70944 13.2076ZM9.19238 12.5294L9.28453 12.4111L9.23109 12.3695L9.16454 12.382L9.19238 12.5294ZM10.4287 11.6206V11.4706H10.4287L10.4287 11.6206ZM3.91764 14.7998H3.76764V14.8524L3.8006 14.8936L3.91764 14.7998ZM5.42211 13.8183L5.35749 13.683L5.35724 13.6831L5.42211 13.8183ZM5.48868 13.7865L5.55331 13.9219L5.55334 13.9219L5.48868 13.7865ZM5.56519 13.75L5.68916 13.8344L6.00206 13.3751L5.50053 13.6147L5.56519 13.75ZM7.24745 9.46812L7.12119 9.54911L7.29553 9.82088L7.39078 9.51237L7.24745 9.46812ZM7.15487 12.1028L7.01239 12.0559L7.01223 12.0564L7.15487 12.1028ZM7.08915 12.2959L6.9478 12.2457L6.84629 12.5314L7.13499 12.4387L7.08915 12.2959ZM7.233 11.8655L7.37547 11.9124L7.37556 11.9121L7.233 11.8655ZM7.23305 11.8653L7.09057 11.8184L7.09048 11.8187L7.23305 11.8653ZM7.51765 10.999L7.62932 10.8989L7.45578 10.7054L7.37506 10.9524L7.51765 10.999ZM8.00302 11.5133L8.10974 11.4079L8.10973 11.4079L8.00302 11.5133ZM8.46296 11.93L8.49528 12.0765L8.78738 12.012L8.56101 11.8165L8.46296 11.93ZM11.1527 12.4869H11.3027V12.4537L11.2887 12.4236L11.1527 12.4869ZM10.8171 12.7219L10.7852 12.8685L10.8014 12.872L10.818 12.8719L10.8171 12.7219ZM10.2095 12.3707L10.1928 12.2216L9.79383 12.2663L10.1244 12.4942L10.2095 12.3707ZM8.40743 11.1009C8.6255 11.3216 8.94907 11.6002 9.28576 11.8685L9.47271 11.6339C9.13965 11.3685 8.8267 11.0984 8.62088 10.89L8.40743 11.1009ZM7.66426 10.2842C7.88071 10.5455 8.12921 10.8191 8.40743 11.1009L8.62088 10.89C8.34805 10.6138 8.10551 10.3466 7.89529 10.0929L7.66426 10.2842ZM8.10843 8.32439C8.10843 8.44691 8.07645 8.63676 7.99872 8.93558C7.92176 9.23146 7.80317 9.62265 7.6369 10.1429L7.92265 10.2342C8.08915 9.71328 8.20989 9.31547 8.28906 9.0111C8.36747 8.70967 8.40843 8.48802 8.40843 8.32439H8.10843ZM7.17327 7.00938C7.48383 7.00938 7.70077 7.06948 7.84784 7.23547C8.00043 7.40769 8.10843 7.72723 8.10843 8.32439H8.40843C8.40843 7.70585 8.29953 7.29288 8.07239 7.03652C7.83972 6.77393 7.51408 6.70937 7.17327 6.70937V7.00938ZM6.23811 8.35944C6.23811 7.76094 6.38072 7.42975 6.55376 7.24793C6.72549 7.06749 6.95093 7.00938 7.17327 7.00938V6.70937C6.90071 6.70937 6.58358 6.78144 6.33645 7.04111C6.09064 7.2994 5.93811 7.71825 5.93811 8.35944H6.23811ZM7.08923 10.2498C6.5094 9.48682 6.23811 8.85615 6.23811 8.35944H5.93811C5.93811 8.95578 6.25817 9.65206 6.85038 10.4313L7.08923 10.2498ZM6.70678 11.6267C6.85752 11.1681 6.99362 10.7541 7.11252 10.3867L6.82709 10.2944C6.70845 10.661 6.57258 11.0743 6.42179 11.533L6.70678 11.6267ZM6.61106 11.9179L6.70678 11.6266L6.42178 11.533L6.32606 11.8242L6.61106 11.9179ZM6.31116 12.7009C6.41777 12.4596 6.51839 12.1989 6.61102 11.918L6.32611 11.824C6.23643 12.096 6.13928 12.3476 6.03673 12.5797L6.31116 12.7009ZM5.99408 12.8918C6.07138 12.8527 6.15191 12.8147 6.23547 12.7771L6.11241 12.5035C6.02575 12.5425 5.94092 12.5825 5.85857 12.6242L5.99408 12.8918ZM5.1985 13.2812C5.44567 13.1625 5.71291 13.0342 5.99408 12.8918L5.85857 12.6242C5.58062 12.7649 5.31612 12.8919 5.06865 13.0107L5.1985 13.2812ZM5.17738 13.2913L5.1985 13.2812L5.06865 13.0107L5.04753 13.0209L5.17738 13.2913ZM3.34434 14.7992C3.34434 14.5032 3.49519 14.2702 3.81018 14.0341C4.1308 13.7938 4.59458 13.5707 5.17729 13.2914L5.04762 13.0208C4.47521 13.2952 3.97993 13.532 3.63027 13.7941C3.27498 14.0603 3.04434 14.372 3.04434 14.7992H3.34434ZM4.27949 15.4994C4.04723 15.4994 3.80695 15.4264 3.62834 15.2991C3.4515 15.173 3.34434 15.0019 3.34434 14.7992H3.04434C3.04434 15.1216 3.21889 15.3756 3.4542 15.5433C3.68774 15.7098 3.99003 15.7994 4.27949 15.7994V15.4994ZM6.57443 13.1422C6.20971 13.8956 5.77994 14.4909 5.36391 14.8955C4.94171 15.3062 4.55605 15.4994 4.27949 15.4994V15.7994C4.6755 15.7994 5.13391 15.5378 5.57308 15.1106C6.01844 14.6774 6.46736 14.0518 6.84445 13.2729L6.57443 13.1422ZM9.16454 12.382C8.40524 12.5254 7.43702 12.7554 6.6538 13.0683L6.76508 13.3469C7.52197 13.0445 8.46837 12.8188 9.22022 12.6768L9.16454 12.382ZM10.7904 13.3019C10.7395 13.3019 10.6591 13.2829 10.5475 13.2358C10.439 13.19 10.3129 13.1229 10.1747 13.0391C9.89853 12.8718 9.58519 12.6452 9.28453 12.4111L9.10023 12.6478C9.40502 12.8851 9.72876 13.1197 10.0193 13.2957C10.1644 13.3837 10.3041 13.4587 10.4309 13.5122C10.5548 13.5645 10.6794 13.6019 10.7904 13.6019V13.3019ZM11.7256 12.4865C11.7256 12.6888 11.6819 12.8888 11.5553 13.0369C11.4326 13.1805 11.209 13.3019 10.7904 13.3019V13.6019C11.2687 13.6019 11.5877 13.4608 11.7834 13.2317C11.9752 13.0072 12.0256 12.7245 12.0256 12.4865H11.7256ZM10.4287 11.7706C10.6682 11.7706 11.0034 11.7721 11.2779 11.8701C11.4125 11.9182 11.5227 11.9864 11.5992 12.0805C11.6739 12.1724 11.7256 12.3003 11.7256 12.4865H12.0256C12.0256 12.2398 11.9552 12.0429 11.832 11.8913C11.7106 11.7419 11.5472 11.6477 11.3788 11.5876C11.0473 11.4692 10.6591 11.4706 10.4287 11.4706V11.7706ZM9.40432 11.8991C9.91697 11.8121 10.297 11.7706 10.4288 11.7706L10.4287 11.4706C10.2687 11.4706 9.86595 11.5165 9.35414 11.6033L9.40432 11.8991ZM3.8006 14.8936C3.82091 14.9189 3.8509 14.9397 3.8702 14.9522C3.89561 14.9686 3.9283 14.9866 3.9673 15.0034C4.04527 15.0371 4.15212 15.0674 4.27937 15.0674V14.7674C4.19997 14.7674 4.13356 14.7484 4.08612 14.728C4.06242 14.7177 4.04437 14.7075 4.03282 14.7001C4.027 14.6963 4.02358 14.6938 4.02236 14.6928C4.0186 14.6898 4.02566 14.6947 4.03468 14.7059L3.8006 14.8936ZM5.35724 13.6831C4.98939 13.8595 4.60649 14.0431 4.31587 14.2158C4.17094 14.3019 4.04184 14.3894 3.94723 14.4763C3.86057 14.5559 3.76764 14.6662 3.76764 14.7998H4.06764C4.06764 14.8035 4.07031 14.7706 4.15016 14.6972C4.22206 14.6312 4.33038 14.5561 4.46911 14.4737C4.74579 14.3093 5.11513 14.1319 5.48698 13.9536L5.35724 13.6831ZM5.42405 13.6512L5.35749 13.683L5.48674 13.9537L5.55331 13.9219L5.42405 13.6512ZM5.50053 13.6147L5.42402 13.6512L5.55334 13.9219L5.62984 13.8853L5.50053 13.6147ZM4.27937 15.0674C4.36817 15.0674 4.46684 15.0301 4.56146 14.9793C4.66053 14.9261 4.77249 14.8484 4.8922 14.7475C5.13193 14.5454 5.41096 14.2429 5.68916 13.8344L5.44121 13.6656C5.17612 14.0547 4.91486 14.336 4.69881 14.5181C4.59063 14.6094 4.49583 14.674 4.41947 14.715C4.33864 14.7585 4.2932 14.7674 4.27937 14.7674V15.0674ZM6.9619 8.35934C6.9619 7.98159 7.02169 7.8339 7.06374 7.77983C7.09152 7.74412 7.11468 7.7418 7.17363 7.7418V7.4418C7.10612 7.4418 6.94841 7.43947 6.82694 7.59565C6.71974 7.73346 6.6619 7.96955 6.6619 8.35934H6.9619ZM7.37371 9.38713C7.09342 8.95019 6.9619 8.60119 6.9619 8.35934H6.6619C6.6619 8.69049 6.8334 9.10046 7.12119 9.54911L7.37371 9.38713ZM7.38536 8.32429C7.38536 8.38007 7.36504 8.49787 7.31586 8.69099C7.26808 8.87862 7.19697 9.12315 7.10413 9.42387L7.39078 9.51237C7.48411 9.21005 7.55695 8.95992 7.60658 8.76502C7.65481 8.57561 7.68536 8.42301 7.68536 8.32429H7.38536ZM7.17363 7.7418C7.24343 7.7418 7.2775 7.74274 7.30175 7.74879C7.31479 7.75204 7.3177 7.75425 7.32398 7.76408C7.33574 7.7825 7.35326 7.82553 7.36616 7.92092C7.37875 8.01405 7.38536 8.14359 7.38536 8.32429H7.68536C7.68536 8.13873 7.67872 7.99359 7.66345 7.88071C7.64849 7.77009 7.62353 7.67577 7.57683 7.60263C7.52464 7.52091 7.4531 7.47734 7.37434 7.4577C7.30679 7.44086 7.2317 7.4418 7.17363 7.4418V7.7418ZM7.01223 12.0564C6.99145 12.1202 6.96997 12.1833 6.9478 12.2457L7.23049 12.3461C7.25356 12.2812 7.2759 12.2156 7.2975 12.1492L7.01223 12.0564ZM7.09052 11.8186L7.01239 12.0559L7.29734 12.1497L7.37547 11.9124L7.09052 11.8186ZM7.09048 11.8187L7.09043 11.8189L7.37556 11.9121L7.37561 11.912L7.09048 11.8187ZM7.37506 10.9524C7.28873 11.2167 7.19398 11.5044 7.09057 11.8184L7.37552 11.9123C7.4789 11.5983 7.57377 11.3103 7.66023 11.0456L7.37506 10.9524ZM8.10973 11.4079C7.93778 11.2339 7.77766 11.0643 7.62932 10.8989L7.40598 11.0992C7.55789 11.2686 7.72135 11.4416 7.89631 11.6188L8.10973 11.4079ZM8.56101 11.8165C8.33752 11.6234 8.17316 11.4721 8.10974 11.4079L7.8963 11.6187C7.96852 11.6919 8.14043 11.8496 8.3649 12.0435L8.56101 11.8165ZM7.13499 12.4387C7.58307 12.2949 8.05277 12.1741 8.49528 12.0765L8.43064 11.7835C7.98141 11.8826 7.50235 12.0058 7.0433 12.1531L7.13499 12.4387ZM11.0027 12.4869C11.0027 12.5323 11.0022 12.5527 10.9997 12.5666C10.9983 12.5748 10.999 12.5641 11.0101 12.554C11.0177 12.5472 11.0164 12.5535 10.9822 12.5602C10.9486 12.5668 10.8965 12.5714 10.8161 12.5719L10.818 12.8719C10.9054 12.8713 10.9792 12.8665 11.04 12.8546C11.1002 12.8428 11.1618 12.8213 11.2113 12.7766C11.2644 12.7286 11.2861 12.6699 11.2951 12.6189C11.3032 12.5736 11.3027 12.5238 11.3027 12.4869H11.0027ZM10.4292 12.5035C10.6944 12.5035 10.8528 12.5169 10.9461 12.5367C11.0451 12.5578 11.0293 12.5774 11.0167 12.5502L11.2887 12.4236C11.2386 12.3159 11.1283 12.2688 11.0086 12.2433C10.8831 12.2166 10.6985 12.2035 10.4292 12.2035V12.5035ZM10.2262 12.5198C10.3279 12.5084 10.3959 12.5035 10.4292 12.5035V12.2035C10.3777 12.2035 10.2953 12.2101 10.1928 12.2216L10.2262 12.5198ZM10.849 12.5753C10.826 12.5703 10.7636 12.5433 10.6573 12.4814C10.5574 12.4231 10.4335 12.3429 10.2946 12.2472L10.1244 12.4942C10.2666 12.5923 10.3973 12.677 10.5062 12.7405C10.6088 12.8004 10.7096 12.852 10.7852 12.8685L10.849 12.5753Z" fill="#1A47E5"/>
</svg>
