<svg width="73" height="73" viewBox="0 0 73 73" fill="none" xmlns="http://www.w3.org/2000/svg">
<path d="M36.5 0C46.1804 0 55.4643 3.84552 62.3094 10.6906C69.1545 17.5357 73 26.8196 73 36.5C73 46.1804 69.1545 55.4643 62.3094 62.3094C55.4643 69.1545 46.1804 73 36.5 73C26.8196 73 17.5357 69.1545 10.6906 62.3094C3.84552 55.4643 0 46.1804 0 36.5C0 26.8196 3.84552 17.5357 10.6906 10.6906C17.5357 3.84552 26.8196 0 36.5 0ZM31.9531 43.7009L23.8449 35.5875C23.5543 35.2968 23.2092 35.0662 22.8294 34.9089C22.4496 34.7516 22.0425 34.6707 21.6315 34.6707C21.2204 34.6707 20.8133 34.7516 20.4335 34.9089C20.0538 35.0662 19.7087 35.2968 19.418 35.5875C18.831 36.1745 18.5012 36.9708 18.5012 37.801C18.5012 38.6312 18.831 39.4274 19.418 40.0144L29.7423 50.3387C30.0321 50.6309 30.377 50.8627 30.7569 51.0209C31.1368 51.1792 31.5442 51.2606 31.9558 51.2606C32.3673 51.2606 32.7747 51.1792 33.1546 51.0209C33.5345 50.8627 33.8794 50.6309 34.1692 50.3387L55.5478 28.9549C55.8423 28.6655 56.0767 28.3205 56.2373 27.94C56.3979 27.5596 56.4815 27.151 56.4834 26.7381C56.4854 26.3251 56.4055 25.9158 56.2485 25.5338C56.0914 25.1519 55.8603 24.8048 55.5684 24.5126C55.2766 24.2204 54.9298 23.9889 54.548 23.8314C54.1662 23.6739 53.757 23.5935 53.344 23.595C52.9311 23.5964 52.5224 23.6796 52.1418 23.8397C51.7611 23.9999 51.4159 24.2338 51.1261 24.528L31.9531 43.7009Z" fill="#58BE7C"/>
</svg>
