<svg width="18" height="18" viewBox="0 0 18 18" fill="none" xmlns="http://www.w3.org/2000/svg">
<path d="M13.1665 4.00033H17.3332V5.66699H15.6665V16.5003C15.6665 16.7213 15.5787 16.9333 15.4224 17.0896C15.2661 17.2459 15.0542 17.3337 14.8332 17.3337H3.1665C2.94549 17.3337 2.73353 17.2459 2.57725 17.0896C2.42097 16.9333 2.33317 16.7213 2.33317 16.5003V5.66699H0.666504V4.00033H4.83317V1.50033C4.83317 1.27931 4.92097 1.06735 5.07725 0.91107C5.23353 0.75479 5.44549 0.666992 5.6665 0.666992H12.3332C12.5542 0.666992 12.7661 0.75479 12.9224 0.91107C13.0787 1.06735 13.1665 1.27931 13.1665 1.50033V4.00033ZM13.9998 5.66699H3.99984V15.667H13.9998V5.66699ZM10.1782 10.667L11.6515 12.1403L10.4732 13.3187L8.99984 11.8453L7.5265 13.3187L6.34817 12.1403L7.8215 10.667L6.34817 9.19366L7.5265 8.01533L8.99984 9.48866L10.4732 8.01533L11.6515 9.19366L10.1782 10.667ZM6.49984 2.33366V4.00033H11.4998V2.33366H6.49984Z" fill="#5B5B5D"/>
</svg>
