<svg width="19" height="15" viewBox="0 0 19 15" fill="none" xmlns="http://www.w3.org/2000/svg">
<path d="M17.489 5.62146C18.5037 6.68902 18.5037 8.31097 17.489 9.37854C15.7777 11.1791 12.8386 13.625 9.5 13.625C6.16142 13.625 3.22231 11.1791 1.51099 9.37854C0.496336 8.31098 0.496336 6.68902 1.51099 5.62146C3.22231 3.82092 6.16142 1.375 9.5 1.375C12.8386 1.375 15.7777 3.82092 17.489 5.62146Z" stroke="#336DF1" stroke-width="1.5"/>
<path d="M12.125 7.5C12.125 8.94975 10.9497 10.125 9.5 10.125C8.05025 10.125 6.875 8.94975 6.875 7.5C6.875 6.05025 8.05025 4.875 9.5 4.875C10.9497 4.875 12.125 6.05025 12.125 7.5Z" stroke="#336DF1" stroke-width="1.5"/>
</svg>
