<svg width="201" height="34" viewBox="0 0 201 34" fill="none" xmlns="http://www.w3.org/2000/svg">
<path fill-rule="evenodd" clip-rule="evenodd" d="M22.7892 29.4935C22.1477 29.9725 21.809 30.2236 21.4715 30.4771C17.4627 33.4925 13.0769 34.1987 8.44147 32.2903C3.8493 30.4 1.10364 26.9326 0.215296 21.9735C-1.17127 14.233 4.33852 7.34301 11.1286 6.39422C14.1224 5.97574 16.9722 6.33109 19.6476 7.81741C20.3963 8.23318 20.9404 8.80092 20.808 9.67306C20.462 11.9458 20.0377 14.2073 19.6318 16.4706C19.6021 16.6361 19.4723 16.7836 19.3331 17.0442C18.8998 16.6321 18.5407 16.2736 18.1646 15.9354C16.5663 14.4973 14.7076 13.7266 12.5503 14.031C10.1848 14.3652 8.49688 15.9922 7.97523 18.3236C7.40943 20.8511 8.34147 22.88 10.2871 24.4226C12.2025 25.941 14.3004 25.7899 16.3492 24.6625C17.924 23.7958 19.0453 22.4588 19.8692 20.8759C21.7972 17.1696 22.504 13.158 22.6928 9.04308C22.745 7.90669 23.1698 7.5509 24.2487 7.5978C25.7326 7.66228 27.2214 7.63568 28.7076 7.60727C29.5838 7.59058 30.023 7.92969 30.0221 8.84241C30.014 16.6176 30.0149 24.3933 30.0194 32.169C30.0198 32.9465 29.6869 33.3473 28.8855 33.3428C27.2503 33.3334 25.615 33.3347 23.9798 33.3415C23.1514 33.3446 22.7446 32.9807 22.7824 32.119C22.8153 31.3618 22.7892 30.6024 22.7892 29.4935Z" fill="#00989B"/>
<path fill-rule="evenodd" clip-rule="evenodd" d="M65.2052 17.2294C63.7133 15.5343 62.0983 14.3664 59.9477 14.0962C57.6949 13.8135 55.4754 14.8687 54.3789 16.8159C53.1649 18.9714 53.4122 21.4228 55.0506 23.4841C56.4885 25.2928 58.6458 25.9895 60.8266 25.3194C62.9776 24.6592 64.4575 23.1869 65.5138 21.2681C67.0765 18.4285 67.927 15.3625 68.2847 12.15C68.3536 11.5322 68.4455 10.9171 68.5523 10.1058C70.3628 11.6278 71.3687 13.4509 72.0561 15.4604C74.6279 22.9745 70.2087 31.0244 62.4871 32.9337C54.7744 34.8407 47.1501 29.754 45.9311 21.8877C44.5905 13.2363 51.6278 5.56703 60.3369 6.35123C62.0627 6.50681 63.743 7.29732 65.4152 7.87949C66.2661 8.17576 66.645 8.88285 66.5972 9.82262C66.4711 12.3051 66.1305 14.7398 65.2052 17.2294Z" fill="#00989B"/>
<path fill-rule="evenodd" clip-rule="evenodd" d="M84.798 15.0269C84.5363 13.1789 84.329 11.7124 84.1214 10.2464C83.9624 9.12626 84.5079 8.44263 85.4476 7.91592C90.3204 5.18634 97.383 6.32227 101.158 10.4466C103.125 12.5963 104.172 15.0535 104.123 18.0235C104.047 22.5983 104.106 27.1754 104.101 31.7521C104.098 33.2294 103.974 33.3457 102.518 33.3525C101.44 33.357 100.359 33.3043 99.2849 33.3665C98.2123 33.4292 97.8339 32.9832 97.8416 31.9343C97.8709 27.7671 97.8709 23.5999 97.8326 19.4331C97.8245 18.5136 97.7344 17.5621 97.4781 16.6846C96.7812 14.2986 94.7851 12.838 92.3156 12.5783C89.5663 12.2892 87.0689 12.7208 84.798 15.0269Z" fill="#00989B"/>
<path fill-rule="evenodd" clip-rule="evenodd" d="M82.8676 30.2965C80.672 28.2411 79.3723 26.008 78.3272 23.6135C76.9326 20.4158 75.9609 17.1388 76.2771 13.5691C76.4177 11.9817 76.3131 10.3718 76.2996 8.77279C76.2929 7.98228 76.6384 7.6098 77.4411 7.62332C78.6295 7.64271 79.8192 7.64407 81.008 7.62152C81.6477 7.60934 81.9009 7.85691 82.0004 8.51485C82.3712 10.9698 82.8167 13.4135 83.2311 15.8617C83.2618 16.043 83.2847 16.2297 83.2789 16.4127C83.1446 20.4889 83.0046 24.5654 82.8694 28.642C82.8554 29.0789 82.8676 29.5168 82.8676 30.2965Z" fill="#00989B"/>
<path fill-rule="evenodd" clip-rule="evenodd" d="M34.4463 8.71233C37.6474 10.1878 38.4727 10.1874 41.8598 8.64062C41.5846 16.4673 39.8367 23.5927 34.4463 29.8437V8.71233Z" fill="#00989B"/>
<path fill-rule="evenodd" clip-rule="evenodd" d="M41.8233 3.74927C41.8242 5.87143 40.2241 7.48131 38.1001 7.49529C35.9054 7.50927 34.3233 5.90795 34.3422 3.69155C34.3602 1.54865 35.9473 -0.00982709 38.1014 4.66519e-05C40.2164 0.0100146 41.8224 1.62756 41.8233 3.74927Z" fill="#00989B"/>
<path fill-rule="evenodd" clip-rule="evenodd" d="M34.3625 32.3987C38.3506 29.9361 39.962 25.8703 41.6725 21.7739C41.7396 21.8871 41.8153 21.9548 41.8153 22.0228C41.8229 25.2561 41.8369 28.4894 41.818 31.7223C41.8112 32.8934 41.3576 33.3281 40.1877 33.3461C38.7772 33.3678 37.3641 33.3962 35.9568 33.3286C35.4324 33.3033 34.9216 33.0151 34.4044 32.8469C34.3905 32.6977 34.3765 32.5484 34.3625 32.3987Z" fill="#00989B"/>
<path fill-rule="evenodd" clip-rule="evenodd" d="M76.307 24.3628C77.3985 26.0611 78.6009 28.0854 79.9681 29.9906C80.601 30.8722 81.5641 31.5144 82.3597 32.2837C82.5245 32.4433 82.7475 32.7288 82.6998 32.8771C82.639 33.0674 82.3322 33.2992 82.1277 33.3028C80.4244 33.3326 78.718 33.3547 77.0179 33.2663C76.7656 33.2532 76.3449 32.6548 76.3381 32.3202C76.2832 29.5212 76.307 26.7203 76.307 24.3628Z" fill="#00989B"/>
<path fill-rule="evenodd" clip-rule="evenodd" d="M121.308 26.5177C122.193 26.5177 122.983 26.3103 123.679 25.8954C124.374 25.4805 124.922 24.9177 125.322 24.2075C125.723 23.4977 125.923 22.6923 125.923 21.7922C125.923 20.8921 125.723 20.0903 125.322 19.3869C124.922 18.6838 124.374 18.1251 123.679 17.7098C122.983 17.2949 122.193 17.0875 121.308 17.0875C120.436 17.0875 119.649 17.2949 118.948 17.7098C118.244 18.1251 117.69 18.6838 117.282 19.3869C116.875 20.0903 116.671 20.8921 116.671 21.7922C116.671 22.6923 116.875 23.4977 117.282 24.2075C117.69 24.9177 118.244 25.4805 118.948 25.8954C119.649 26.3103 120.436 26.5177 121.308 26.5177ZM121.308 27.6992C120.184 27.6992 119.176 27.4426 118.284 26.929C117.391 26.4158 116.688 25.7127 116.176 24.819C115.663 23.9265 115.407 22.9173 115.407 21.7922C115.407 20.6671 115.663 19.661 116.176 18.7754C116.688 17.8893 117.391 17.1894 118.284 16.6762C119.176 16.163 120.184 15.906 121.308 15.906C122.319 15.906 123.229 16.1243 124.037 16.5599C124.845 16.9964 125.473 17.5799 125.923 18.3109V11.7289C125.923 11.5323 125.983 11.3776 126.102 11.2648C126.221 11.1521 126.372 11.0962 126.555 11.0962C126.752 11.0962 126.906 11.1521 127.019 11.2648C127.131 11.3776 127.188 11.5323 127.188 11.7289V21.9185C127.173 23.0156 126.906 24 126.386 24.8722C125.866 25.7443 125.167 26.4334 124.29 26.9398C123.411 27.4457 122.417 27.6992 121.308 27.6992Z" fill="#00989B"/>
<path fill-rule="evenodd" clip-rule="evenodd" d="M134.986 27.5724C134.803 27.5724 134.652 27.5129 134.532 27.3934C134.413 27.2739 134.354 27.1224 134.354 26.9398V16.6654C134.354 16.4688 134.413 16.3141 134.532 16.2014C134.652 16.0891 134.803 16.0327 134.986 16.0327C135.182 16.0327 135.337 16.0891 135.449 16.2014C135.561 16.3141 135.618 16.4688 135.618 16.6654V26.9398C135.618 27.1224 135.561 27.2739 135.449 27.3934C135.337 27.5129 135.182 27.5724 134.986 27.5724ZM134.964 13.6066C134.697 13.6066 134.469 13.5115 134.28 13.3216C134.09 13.1322 133.995 12.8968 133.995 12.615C133.995 12.2916 134.096 12.049 134.3 11.8871C134.504 11.7257 134.732 11.6445 134.986 11.6445C135.224 11.6445 135.446 11.7257 135.65 11.8871C135.853 12.049 135.955 12.2916 135.955 12.615C135.955 12.8968 135.86 13.1322 135.671 13.3216C135.481 13.5115 135.245 13.6066 134.964 13.6066Z" fill="#00989B"/>
<path fill-rule="evenodd" clip-rule="evenodd" d="M148.051 26.5179C148.95 26.5179 149.748 26.3177 150.443 25.9168C151.139 25.5159 151.683 24.9604 152.077 24.2501C152.47 23.5399 152.667 22.7277 152.667 21.8132C152.667 20.8852 152.47 20.0658 152.077 19.3555C151.683 18.6453 151.139 18.0897 150.443 17.6888C149.748 17.288 148.95 17.0877 148.051 17.0877C147.152 17.0877 146.351 17.288 145.649 17.6888C144.946 18.0897 144.399 18.6453 144.005 19.3555C143.612 20.0658 143.415 20.8852 143.415 21.8132C143.415 22.7277 143.612 23.5399 144.005 24.2501C144.399 24.9604 144.946 25.5159 145.649 25.9168C146.351 26.3177 147.152 26.5179 148.051 26.5179ZM148.136 31.9821C146.969 31.9821 145.976 31.7638 145.154 31.3282C144.332 30.8917 143.653 30.3361 143.12 29.6615C143.007 29.5204 142.952 29.3729 142.952 29.2182C142.952 29.0635 143.021 28.9368 143.162 28.8385C143.302 28.7258 143.468 28.6834 143.657 28.7118C143.847 28.7398 143.991 28.8313 144.089 28.986C144.525 29.5064 145.08 29.9388 145.754 30.2838C146.428 30.6279 147.222 30.8006 148.136 30.8006C149.006 30.8006 149.783 30.5895 150.464 30.1675C151.146 29.7458 151.683 29.1655 152.077 28.4273C152.47 27.6886 152.667 26.8625 152.667 25.9479V22.5938L153.236 21.8132H153.932V25.9479C153.932 27.0875 153.678 28.1143 153.172 29.0284C152.667 29.9424 151.978 30.6635 151.107 31.1907C150.236 31.7183 149.245 31.9821 148.136 31.9821ZM148.051 27.6994C146.899 27.6994 145.881 27.446 144.996 26.94C144.111 26.4336 143.415 25.7374 142.909 24.8512C142.403 23.9651 142.151 22.9528 142.151 21.8132C142.151 20.6601 142.411 19.6405 142.93 18.7544C143.45 17.8683 144.156 17.1721 145.048 16.6656C145.94 16.1592 146.941 15.9062 148.051 15.9062C149.203 15.9062 150.219 16.1592 151.097 16.6656C151.975 17.1721 152.667 17.8683 153.172 18.7544C153.678 19.6405 153.932 20.6601 153.932 21.8132L153.194 22.6569C153.194 23.6418 152.976 24.5135 152.54 25.2733C152.105 26.0327 151.5 26.6271 150.728 27.0555C149.955 27.4852 149.063 27.6994 148.051 27.6994Z" fill="#00989B"/>
<path fill-rule="evenodd" clip-rule="evenodd" d="M161.096 27.5724C160.913 27.5724 160.762 27.5129 160.643 27.3934C160.524 27.2739 160.464 27.1224 160.464 26.9398V16.6654C160.464 16.4688 160.524 16.3141 160.643 16.2014C160.762 16.0891 160.913 16.0327 161.096 16.0327C161.293 16.0327 161.447 16.0891 161.56 16.2014C161.672 16.3141 161.728 16.4688 161.728 16.6654V26.9398C161.728 27.1224 161.672 27.2739 161.56 27.3934C161.447 27.5129 161.293 27.5724 161.096 27.5724ZM161.075 13.6066C160.808 13.6066 160.58 13.5115 160.39 13.3216C160.201 13.1322 160.106 12.8968 160.106 12.615C160.106 12.2916 160.207 12.049 160.411 11.8871C160.615 11.7257 160.843 11.6445 161.096 11.6445C161.334 11.6445 161.556 11.7257 161.76 11.8871C161.963 12.049 162.065 12.2916 162.065 12.615C162.065 12.8968 161.971 13.1322 161.781 13.3216C161.592 13.5115 161.356 13.6066 161.075 13.6066Z" fill="#00989B"/>
<path fill-rule="evenodd" clip-rule="evenodd" d="M173.614 27.5723C172.842 27.5583 172.153 27.3793 171.549 27.0343C170.945 26.6898 170.474 26.2118 170.137 25.5998C169.8 24.9883 169.631 24.2952 169.631 23.5219V13.0157C169.631 12.8191 169.691 12.6608 169.811 12.5408C169.929 12.4218 170.081 12.3618 170.264 12.3618C170.46 12.3618 170.619 12.4218 170.737 12.5408C170.857 12.6608 170.917 12.8191 170.917 13.0157V23.5219C170.917 24.3376 171.169 25.0023 171.675 25.5155C172.181 26.0291 172.835 26.2853 173.635 26.2853H174.099C174.296 26.2853 174.453 26.3452 174.573 26.4647C174.693 26.5847 174.752 26.7425 174.752 26.9396C174.752 27.1222 174.693 27.2737 174.573 27.3932C174.453 27.5127 174.296 27.5723 174.099 27.5723H173.614ZM167.988 17.5937C167.819 17.5937 167.682 17.5409 167.577 17.4354C167.471 17.3299 167.418 17.1928 167.418 17.0237C167.418 16.8551 167.471 16.718 167.577 16.6129C167.682 16.5074 167.819 16.4546 167.988 16.4546H173.698C173.867 16.4546 174.004 16.5074 174.11 16.6129C174.215 16.718 174.268 16.8551 174.268 17.0237C174.268 17.1928 174.215 17.3299 174.11 17.4354C174.004 17.5409 173.867 17.5937 173.698 17.5937H167.988Z" fill="#00989B"/>
<path fill-rule="evenodd" clip-rule="evenodd" d="M190.853 27.5727C190.671 27.5727 190.52 27.5132 190.4 27.3937C190.281 27.2742 190.221 27.1227 190.221 26.94V23.079L190.621 21.8137H191.485V26.94C191.485 27.1227 191.429 27.2742 191.317 27.3937C191.204 27.5132 191.05 27.5727 190.853 27.5727ZM185.606 26.5179C186.491 26.5179 187.281 26.3105 187.977 25.8956C188.672 25.4808 189.22 24.918 189.621 24.2077C190.021 23.4979 190.221 22.6993 190.221 21.8137C190.221 20.9136 190.021 20.1082 189.621 19.3979C189.22 18.6877 188.672 18.1254 187.977 17.71C187.281 17.2952 186.491 17.0877 185.606 17.0877C184.735 17.0877 183.948 17.2952 183.245 17.71C182.543 18.1254 181.988 18.6877 181.581 19.3979C181.173 20.1082 180.969 20.9136 180.969 21.8137C180.969 22.6993 181.173 23.4979 181.581 24.2077C181.988 24.918 182.543 25.4808 183.245 25.8956C183.948 26.3105 184.735 26.5179 185.606 26.5179ZM185.606 27.6994C184.481 27.6994 183.474 27.4428 182.582 26.9292C181.689 26.416 180.987 25.713 180.474 24.8197C179.961 23.9268 179.705 22.9243 179.705 21.8137C179.705 20.6881 179.961 19.6793 180.474 18.786C180.987 17.8931 181.689 17.1901 182.582 16.6765C183.474 16.1633 184.481 15.9062 185.606 15.9062C186.73 15.9062 187.734 16.1633 188.619 16.6765C189.505 17.1901 190.204 17.8931 190.716 18.786C191.229 19.6793 191.485 20.6881 191.485 21.8137L190.959 22.6574C190.959 23.6138 190.724 24.4715 190.253 25.2309C189.782 25.9908 189.147 26.5919 188.346 27.0347C187.545 27.478 186.631 27.6994 185.606 27.6994Z" fill="#00989B"/>
<mask id="mask0" mask-type="alpha" maskUnits="userSpaceOnUse" x="197" y="11" width="4" height="17">
<path d="M197.176 11.0962H200.969V27.5725H197.176V11.0962Z" fill="white"/>
</mask>
<g mask="url(#mask0)">
<path fill-rule="evenodd" clip-rule="evenodd" d="M199.915 27.5725C199.381 27.5725 198.907 27.425 198.493 27.1296C198.078 26.8338 197.755 26.4261 197.523 25.9058C197.291 25.3858 197.176 24.7811 197.176 24.0916V11.7289C197.176 11.5323 197.235 11.3776 197.354 11.2648C197.474 11.1521 197.625 11.0962 197.808 11.0962C198.004 11.0962 198.159 11.1521 198.272 11.2648C198.384 11.3776 198.44 11.5323 198.44 11.7289V24.0916C198.44 24.7387 198.577 25.2699 198.851 25.6843C199.125 26.0992 199.479 26.3066 199.915 26.3066H200.442C200.596 26.3066 200.723 26.363 200.822 26.4753C200.919 26.588 200.969 26.7427 200.969 26.9398C200.969 27.1224 200.913 27.2739 200.801 27.3934C200.688 27.5129 200.533 27.5725 200.337 27.5725H199.915Z" fill="#00989B"/>
</g>
</svg>
